<?xml version="1.0" encoding="UTF-8"?>
<svg width="169px" height="38px" viewBox="0 0 169 38" version="1.1" xmlns="http://www.w3.org/2000/svg" xmlns:xlink="http://www.w3.org/1999/xlink">
    <!-- Generator: Sketch 43.2 (39069) - http://www.bohemiancoding.com/sketch -->
    <title>Ecma_Logo</title>
    <desc>Created with Sketch.</desc>
    <defs></defs>
    <g id="Page-1" stroke="none" stroke-width="1" fill="none" fill-rule="evenodd">
        <g id="ecma_04" transform="translate(-50.000000, -50.000000)" fill-rule="nonzero" fill="#000000">
            <g id="Ecma_Logo" transform="translate(50.000000, 50.000000)">
                <path d="M17.4151309,0 C7.29873909,0 0,8.68133971 0,18.1205742 C0,28.1454545 8.07953443,36 17.6188167,36 C21.0475267,36 24.3404462,34.9665072 27.0902037,32.9684211 C29.9078565,31.0392344 32.2502425,28.1110048 33.8457808,24.3559809 L23.6614937,24.3559809 C22.2696411,26.1129187 20.6741028,27.5253589 17.6188167,27.5253589 C13.71484,27.5253589 10.4219205,25.1483254 9.84481086,21.1521531 L34.7623666,21.1521531 C34.8981571,20.3598086 35,19.8086124 35,18.4650718 C34.9660524,8.13014354 27.5315228,0 17.4151309,0 Z M9.94665373,14.262201 C10.3540252,12.2641148 12.356935,8.47464115 17.4830262,8.47464115 C22.6091174,8.47464115 24.6120272,12.2296651 25.0193986,14.262201 L9.94665373,14.262201 Z" id="Shape"></path>
                <path d="M55.8206365,26.5862069 C51.1292189,26.5862069 47.9566056,22.9310345 47.9566056,18 C47.9566056,13.137931 51.0954677,9.17241379 55.8206365,9.4137931 C59.9382835,9.4137931 61.8958534,11.862069 62.975892,14.1724138 L72.9662488,14.1724138 C71.3124397,5.89655172 64.2246866,0 55.4493732,0 C45.56027,0 38,8.03448276 38,17.9310345 C38,27.9655172 45.6952748,36 55.6856316,36 C64.6297011,36 71.2111861,29.7241379 73,22.0689655 L62.9421408,22.0689655 C61.8958534,24.137931 59.9382835,26.5862069 55.8206365,26.5862069 Z" id="Shape"></path>
                <path d="M168.976818,19.2891674 C168.875903,18.9149508 168.505879,18.6768129 168.135856,18.7448523 L161.172686,20.343778 L161.172686,9.89973142 C161.172686,7.7905103 160.701747,6.08952551 159.759869,4.79677708 C158.817991,3.53804834 157.640643,2.51745748 156.160549,1.80304387 C154.747732,1.08863026 153.133084,0.646374217 151.41752,0.374216652 C147.851839,-0.136078782 144.353435,-0.136078782 140.922308,0.578334825 C139.105829,0.952551477 137.423904,1.564906 135.94381,2.44941808 C134.463716,3.33393017 133.219091,4.52461952 132.243575,5.98746643 C131.268058,7.45031334 130.729842,9.3213966 130.595288,11.5326768 L130.561649,12.1450313 L140.585923,12.1450313 L140.619561,11.6347359 C140.754115,10.0358102 141.292331,8.91316025 142.133294,8.23276634 C143.041533,7.55237243 144.319797,7.21217547 145.934445,7.21217547 C146.674492,7.21217547 147.414539,7.28021486 148.05367,7.34825425 C148.659163,7.45031334 149.197379,7.62041182 149.668318,7.89256938 C150.105619,8.16472695 150.442004,8.5389436 150.711112,9.01521934 C150.98022,9.49149508 151.114774,10.171889 151.114774,11.0564011 C151.148412,11.8048344 150.946581,12.3491495 150.509281,12.7233662 C150.004703,13.1656222 149.264656,13.4717995 148.356417,13.7099373 C147.3809,13.9480752 146.27083,14.1521934 144.992567,14.2542525 C143.714304,14.3903312 142.368763,14.5604297 141.023223,14.7645479 C139.677683,14.9686661 138.332143,15.2748433 136.986603,15.6150403 C135.607425,15.9892569 134.3628,16.5675918 133.320007,17.3160251 C132.243575,18.0984781 131.335335,19.1190689 130.628926,20.3777977 C129.956156,21.6705461 129.586133,23.3034915 129.586133,25.2426141 C129.586133,26.0590868 129.687048,26.7735004 129.787964,27.4879141 L126.693222,28.2023277 L126.693222,16.2954342 C126.693222,8.87914056 126.222283,6.66786034 123.127541,3.36794987 C120.43646,0.54431513 116.769864,0 114.448807,0 C109.403032,0 106.005543,2.72157565 103.987233,5.95344673 C101.36343,1.02059087 97.394087,0 94.4675373,0 C88.278053,0 86.125189,3.29991047 85.3515034,4.69471799 L85.2169494,4.69471799 L85.2169494,1.15666965 L76,1.15666965 L76,35.5846016 L85.8897194,35.5846016 L85.8897194,16.8057296 C85.8897194,14.8325873 85.8897194,9.38943599 91.4737107,9.38943599 C96.4185704,9.38943599 96.4185704,14.5604297 96.4185704,16.3634736 L96.4185704,35.1423456 L89.9936166,36.6051925 C89.6235931,36.7072516 89.3881236,37.0814682 89.4554006,37.4556849 C89.5226776,37.7958818 89.8254241,38 90.1281706,38 C90.1954476,38 90.2290861,38 90.2963631,37.9659803 L168.404964,20.1056401 C168.842264,20.0716204 169.077734,19.6633841 168.976818,19.2891674 Z M116.870779,30.4816473 L106.341928,32.8970457 L106.341928,16.3294539 C106.341928,14.4583706 106.341928,9.42345568 111.825004,9.42345568 C116.870779,9.42345568 116.870779,14.1181737 116.870779,16.8397493 L116.870779,30.4816473 Z M151.148412,21.5344673 C151.148412,21.8406446 151.114774,22.2148612 151.081135,22.6571173 L139.677683,25.2766338 C139.677683,25.1405551 139.644045,25.038496 139.644045,24.9024172 C139.644045,24.1539839 139.778599,23.5416294 140.014068,23.0993733 C140.249538,22.6230976 140.585923,22.2488809 141.023223,21.9427037 C141.460524,21.6365264 141.965101,21.3643688 142.536956,21.1602507 C143.142449,20.9561325 143.815219,20.786034 144.420712,20.6839749 C145.093482,20.5478962 145.799891,20.4458371 146.506299,20.3777977 C147.212708,20.3097583 147.919116,20.1736795 148.591886,20.0716204 C149.264656,19.9355416 149.903788,19.7654432 150.475642,19.561325 C150.711112,19.4932856 150.946581,19.3912265 151.148412,19.2891674 L151.148412,21.5344673 L151.148412,21.5344673 Z" id="Shape"></path>
                <path d="M166.500384,5 C167.88906,5 169,3.85416667 169,2.5 C169,1.11111111 167.854343,0 166.500384,0 C165.111709,0 164.000769,1.14583333 164.000769,2.5 C163.966052,3.85416667 165.111709,5 166.500384,5 Z M166.500384,0.3125 C167.680758,0.3125 168.652831,1.28472222 168.652831,2.46527778 C168.652831,3.64583333 167.680758,4.61805556 166.500384,4.61805556 C165.32001,4.61805556 164.347938,3.64583333 164.347938,2.46527778 C164.313221,1.28472222 165.285293,0.3125 166.500384,0.3125 Z" id="Shape"></path>
                <path d="M166.545455,3.20754717 L167.045455,3.20754717 C167.181818,3.20754717 167.272727,3.24528302 167.318182,3.28301887 C167.363636,3.32075472 167.409091,3.39622642 167.409091,3.50943396 C167.409091,3.58490566 167.454545,3.66037736 167.454545,3.77358491 C167.454545,3.8490566 167.5,3.9245283 167.5,4 L168,4 C167.954545,3.96226415 167.954545,3.9245283 167.954545,3.88679245 C167.954545,3.8490566 167.954545,3.81132075 167.909091,3.77358491 L167.909091,3.66037736 L167.909091,3.54716981 C167.909091,3.50943396 167.909091,3.43396226 167.863636,3.39622642 C167.863636,3.35849057 167.818182,3.28301887 167.818182,3.24528302 C167.818182,3.20754717 167.772727,3.16981132 167.727273,3.13207547 C167.681818,3.09433962 167.636364,3.09433962 167.590909,3.05660377 L167.590909,3.05660377 C167.727273,3.01886792 167.818182,2.94339623 167.863636,2.86792453 C167.909091,2.79245283 167.954545,2.67924528 167.954545,2.56603774 C167.954545,2.49056604 167.954545,2.41509434 167.909091,2.33962264 C167.863636,2.26415094 167.818182,2.22641509 167.772727,2.1509434 C167.727273,2.11320755 167.636364,2.0754717 167.545455,2.03773585 C167.454545,2 167.363636,2 167.272727,2 L166,2 L166,3.96226415 L166.5,3.96226415 L166.5,3.20754717 L166.545455,3.20754717 Z M166.545455,2.33962264 L167.136364,2.33962264 C167.272727,2.33962264 167.363636,2.37735849 167.409091,2.41509434 C167.454545,2.45283019 167.5,2.52830189 167.5,2.60377358 C167.5,2.71698113 167.454545,2.79245283 167.409091,2.83018868 C167.363636,2.86792453 167.272727,2.90566038 167.136364,2.90566038 L166.545455,2.90566038 L166.545455,2.33962264 Z" id="Shape"></path>
            </g>
        </g>
    </g>
</svg>