<svg width="84" height="90" viewBox="0 0 84 90" fill="black" xmlns="http://www.w3.org/2000/svg">
<path fill-rule="evenodd" clip-rule="evenodd" d="M43.4976 3.00064C43.1694 3.32748 42.7176 3.51562 42.2555 3.51562C41.7913 3.51562 41.3395 3.32748 41.0106 3.00064C40.6837 2.6738 40.4977 2.21992 40.4977 1.75781C40.4977 1.2957 40.6837 0.841827 41.0106 0.514984C41.3395 0.188141 41.7913 0 42.2555 0C42.7176 0 43.1694 0.188141 43.4976 0.514984C43.8251 0.841827 44.0112 1.2957 44.0112 1.75781C44.0112 2.21992 43.8251 2.6738 43.4976 3.00064ZM68.0219 19.8269C65.736 11.1765 59.1792 4.16657 50.6181 1.33896C49.6967 1.03478 48.7024 1.53534 48.3975 2.45682C48.0927 3.37898 48.5932 4.37325 49.5154 4.67743C57.3493 7.26471 63.249 13.8853 64.912 21.9548C65.0878 22.809 65.8582 23.4064 66.7344 23.3549C67.0029 23.3391 67.2363 23.3322 67.4485 23.3322C74.203 23.3322 79.6976 28.8226 79.6976 35.5724C79.6976 42.3214 74.203 47.8125 67.4485 47.8125H66.0402V34.2519C66.0402 31.8432 64.0805 29.8828 61.6711 29.8828H30.3319C27.9224 29.8828 25.9621 31.8432 25.9621 34.2519V38.6719H21.5428C19.1334 38.6719 17.173 40.6322 17.173 43.041V47.8125H11.7952C7.22969 47.8125 3.51562 44.1012 3.51562 39.5391C3.51562 36.1546 5.54466 33.1451 8.68538 31.872C9.48189 31.5486 9.92821 30.6965 9.74007 29.8574C9.6048 29.2552 9.53613 28.6427 9.53613 28.0364C9.53613 23.475 13.2502 19.7637 17.8157 19.7637C18.1013 19.7637 18.3897 19.7795 18.698 19.8125C19.5 19.8969 20.2554 19.4266 20.5334 18.6706C22.947 12.1014 28.353 6.87058 34.9942 4.67743C35.9164 4.37325 36.4169 3.37898 36.1121 2.45682C35.8079 1.53534 34.8136 1.03478 33.8921 1.33896C26.6535 3.72986 20.6893 9.25255 17.7127 16.2488C11.2562 16.3044 6.02051 21.571 6.02051 28.0371C6.02051 28.4319 6.04042 28.8288 6.08162 29.225C2.34558 31.2836 0 35.1947 0 39.5398C0 46.0396 5.29129 51.3281 11.7952 51.3281H17.173V85.6309C17.173 88.0396 19.1334 90 21.5428 90H52.882C55.2914 90 57.2511 88.0396 57.2511 85.6309V81.2109H61.6711C64.0805 81.2109 66.0402 79.2506 66.0402 76.8418V51.3281H67.4485C76.1414 51.3281 83.2132 44.2598 83.2132 35.5724C83.2132 27.0765 76.4497 20.1297 68.0219 19.8269ZM53.7355 85.6309C53.7355 86.1012 53.3524 86.4844 52.882 86.4844H21.5428C21.0718 86.4844 20.6886 86.1012 20.6886 85.6309V43.041C20.6886 42.5706 21.0718 42.1875 21.5428 42.1875H43.0341V48.5287C43.0341 50.9381 44.9945 52.8985 47.4039 52.8985H53.7355V85.6309ZM46.5498 44.6759L51.2526 49.3829H47.4039C46.9329 49.3829 46.5498 48.9997 46.5498 48.5287V44.6759ZM62.5246 76.8418C62.5246 77.3122 62.1414 77.6953 61.6711 77.6953H57.2511V51.1407C57.2511 50.6744 57.0664 50.2274 56.7368 49.8978L46.0355 39.1875C45.7059 38.8573 45.2589 38.6719 44.7919 38.6719H29.4777V34.2519C29.4777 33.7816 29.8608 33.3984 30.3319 33.3984H61.6711C62.1414 33.3984 62.5246 33.7816 62.5246 34.2519V76.8418ZM27.0168 56.2356H38.4425C39.4135 56.2356 40.2003 55.4487 40.2003 54.4778C40.2003 53.5069 39.4135 52.72 38.4425 52.72H27.0168C26.0465 52.72 25.2589 53.5069 25.2589 54.4778C25.2589 55.4487 26.0465 56.2356 27.0168 56.2356ZM28.2596 64.1581C27.9327 64.4856 27.4789 64.6738 27.0168 64.6738C26.5546 64.6738 26.1015 64.4856 25.7739 64.1581C25.4471 63.8313 25.2589 63.3781 25.2589 62.916C25.2589 62.4532 25.4471 62 25.7739 61.6731C26.1008 61.3442 26.5526 61.1581 27.0168 61.1581C27.4789 61.1581 27.9327 61.3442 28.2596 61.6731C28.5864 62 28.7746 62.4532 28.7746 62.916C28.7746 63.3781 28.5864 63.8313 28.2596 64.1581ZM49.0107 61.1575H34.9269C33.9567 61.1575 33.1691 61.9444 33.1691 62.9153C33.1691 63.8862 33.9567 64.6731 34.9269 64.6731H49.0107C49.9816 64.6731 50.7685 63.8862 50.7685 62.9153C50.7685 61.9444 49.9816 61.1575 49.0107 61.1575ZM30.7961 73.1106H27.0168C26.0465 73.1106 25.2589 72.3237 25.2589 71.3528C25.2589 70.3819 26.0465 69.595 27.0168 69.595H30.7961C31.767 69.595 32.5539 70.3819 32.5539 71.3528C32.5539 72.3237 31.767 73.1106 30.7961 73.1106ZM49.0107 69.595H37.2121C36.2418 69.595 35.4543 70.3819 35.4543 71.3528C35.4543 72.3237 36.2418 73.1106 37.2121 73.1106H49.0107C49.9816 73.1106 50.7685 72.3237 50.7685 71.3528C50.7685 70.3819 49.9816 69.595 49.0107 69.595ZM27.0168 78.0325H38.0141C38.9843 78.0325 39.7719 78.8194 39.7719 79.7903C39.7719 80.7612 38.9843 81.5481 38.0141 81.5481H27.0168C26.0465 81.5481 25.2589 80.7612 25.2589 79.7903C25.2589 78.8194 26.0465 78.0325 27.0168 78.0325ZM49.0107 78.0325H44.7919C43.8217 78.0325 43.0341 78.8194 43.0341 79.7903C43.0341 80.7612 43.8217 81.5481 44.7919 81.5481H49.0107C49.9816 81.5481 50.7685 80.7612 50.7685 79.7903C50.7685 78.8194 49.9816 78.0325 49.0107 78.0325Z"/>
</svg>
