<svg width="62" height="62" viewBox="0 0 62 62" fill="black" xmlns="http://www.w3.org/2000/svg">
<mask id="path-1-outside-1_138:57" maskUnits="userSpaceOnUse" x="0" y="0" width="62" height="62">
<rect fill="white" width="62" height="62"/>
<path d="M61.6571 5.5019C61.6571 4.2996 61.1888 3.16904 60.3387 2.31845C59.4881 1.46833 58.3575 1 57.1552 1C55.9529 1 54.8224 1.46833 53.9718 2.31845C53.1217 3.16904 52.6533 4.2996 52.6533 5.5019C52.6533 6.70419 53.1217 7.83476 53.9718 8.68534C54.5123 9.2254 55.1658 9.6109 55.8784 9.82053V21.775L50.4186 27.2348C46.6349 21.1933 40.0653 17.0662 32.5235 16.6701L32.5184 8.87647C34.1603 8.36788 35.3566 6.83516 35.3566 5.02801C35.3566 2.80715 33.5494 1 31.3286 1C29.1077 1 27.3006 2.80715 27.3006 5.02801C27.3006 6.83886 28.5015 8.37389 30.149 8.87925L30.154 16.6687C28.5454 16.7515 26.9822 17.0056 25.4795 17.4105C25.3661 17.4244 25.256 17.4545 25.1514 17.4999C19.742 19.046 15.1601 22.5696 12.2385 27.2348L6.7787 21.775V9.82053C7.49184 9.6109 8.14528 9.2254 8.68534 8.68534C9.53546 7.83476 10.0038 6.70419 10.0038 5.5019C10.0038 4.2996 9.53546 3.16904 8.68534 2.31845C7.83476 1.46833 6.70419 1 5.5019 1C4.2996 1 3.16904 1.46833 2.31845 2.31845C1.46833 3.16904 1 4.2996 1 5.5019C1 6.70419 1.46833 7.83476 2.31845 8.68534C2.90479 9.27168 3.62441 9.67615 4.40928 9.87098V22.2655C4.40928 22.5798 4.53377 22.881 4.7559 23.1032L11.045 29.3918C9.61876 32.3448 8.81908 35.6546 8.81908 39.1477C8.81908 49.4542 15.7862 58.4251 25.7618 60.9634C25.8599 60.9884 25.9585 61 26.0548 61C26.5837 61 27.0659 60.6432 27.2024 60.1073C27.3635 59.4733 26.9803 58.8286 26.3463 58.6671C22.652 57.7272 19.4199 55.8007 16.8992 53.2119L18.3491 50.519C18.4106 50.4052 18.5291 50.3344 18.6582 50.3344C19.786 50.3344 20.8096 49.6249 21.2053 48.5693L22.0915 46.2055C22.1151 46.1439 22.1549 46.0898 22.2077 46.0495L22.4395 45.8732C23.0638 45.3975 23.4526 44.6751 23.5053 43.892C23.5576 43.1086 23.2698 42.3408 22.7144 41.7855L21.384 40.455C21.3455 40.4166 21.3057 40.3791 21.2664 40.3444L18.3972 37.7991C17.8988 37.3576 17.2578 37.1142 16.5919 37.1142H11.2908C11.4301 35.7291 11.711 34.3852 12.1178 33.0964L14.8125 31.137C14.9435 31.0417 15.098 30.9912 15.26 30.9912H17.1292C17.9895 30.9912 18.7919 30.6492 19.3875 30.0286C19.9836 29.4076 20.2923 28.5922 20.2571 27.7323C20.2483 27.5204 20.3293 27.3131 20.4797 27.1631L20.5982 27.0446C20.7587 26.8836 20.9804 26.804 21.2067 26.8248L24.0616 27.0905C25.3388 27.2094 26.5448 26.549 27.1335 25.4092L28.6852 22.4025C29.2322 21.3428 29.123 20.1261 28.4973 19.208C29.4229 19.077 30.3678 19.0076 31.3286 19.0076C37.2142 19.0076 42.5176 21.5455 46.2032 25.5841H39.4114L37.7926 24.8802C37.5228 24.7627 37.2364 24.703 36.9421 24.703H34.5981C33.9497 24.703 33.3444 24.9927 32.9372 25.4976L31.4697 27.3172C30.9324 27.9832 30.8524 28.9087 31.2439 29.6524L29.7556 30.3766C29.0263 30.7311 28.5551 31.4845 28.5551 32.2948V33.8725C27.4301 33.953 26.4319 34.6097 25.9127 35.6259L25.4698 36.4941C24.5239 38.3461 24.8765 40.5786 26.3472 42.0493L28.5871 44.2887C28.9897 44.6917 29.5256 44.9139 30.0957 44.9139H31.4457L31.9265 47.0704V50.0123C31.9265 52.9056 34.2802 55.2597 37.1739 55.2597C37.7538 55.2597 38.316 55.0191 38.7168 54.5998L44.2303 48.8262C44.6112 48.4273 44.8213 47.9039 44.8213 47.3527V41.3458C44.8213 41.1593 44.9134 40.9849 45.0675 40.8794L45.8468 40.3481C46.0852 40.1852 46.4068 40.2278 46.5942 40.4481L46.9006 40.8072C47.43 41.4278 48.2014 41.8021 49.0168 41.8345C49.8327 41.8702 50.6305 41.5546 51.2072 40.9779C51.2622 40.9229 51.327 40.8812 51.3969 40.853C50.6833 49.3329 44.6922 56.5217 36.3386 58.6602C35.7046 58.8222 35.3223 59.4677 35.4848 60.1013C35.6467 60.7353 36.2923 61.1175 36.9263 60.9556C46.8834 58.4066 53.8381 49.4389 53.8381 39.1477C53.8381 35.6546 53.0384 32.3448 51.6121 29.3918L57.9012 23.1032C58.1234 22.881 58.2479 22.5798 58.2479 22.2655V9.87098C59.0327 9.67615 59.7524 9.27168 60.3387 8.68534C61.1888 7.83476 61.6571 6.70419 61.6571 5.5019ZM3.36942 5.5019C3.36942 4.93222 3.59109 4.39679 3.99417 3.99417C4.39679 3.59109 4.93222 3.36942 5.5019 3.36942C6.07158 3.36942 6.60701 3.59109 7.00963 3.99417C7.4127 4.39679 7.63438 4.93222 7.63438 5.5019C7.63438 6.07158 7.4127 6.60701 7.00963 7.00963C6.60701 7.4127 6.07158 7.63438 5.5019 7.63438C4.93222 7.63438 4.39679 7.4127 3.99417 7.00963C3.59109 6.60701 3.36942 6.07158 3.36942 5.5019ZM31.3286 3.36942C32.243 3.36942 32.9872 4.11357 32.9872 5.02801C32.9872 5.94246 32.243 6.68661 31.3286 6.68661C30.4141 6.68661 29.67 5.94246 29.67 5.02801C29.67 4.11357 30.4141 3.36942 31.3286 3.36942ZM16.8247 39.5716L19.6957 42.1182C19.7008 42.1229 19.7059 42.1275 19.7096 42.1312L21.0392 43.4607C21.1373 43.5588 21.1452 43.6732 21.1415 43.7324C21.1373 43.7916 21.1142 43.9041 21.0035 43.9883L20.7717 44.1646C20.364 44.4756 20.053 44.8935 19.8734 45.3734L18.9868 47.7373C18.9359 47.8733 18.8035 47.965 18.6582 47.965C17.6558 47.965 16.7381 48.5129 16.2629 49.3954L15.2457 51.2845C12.743 47.9645 11.2639 43.8661 11.1917 39.4832H16.5919C16.678 39.4832 16.7608 39.5146 16.8247 39.5716ZM26.2727 20.3011C26.6346 20.5019 26.7693 20.9476 26.5796 21.3155L25.0279 24.3221C24.8849 24.5993 24.5905 24.7599 24.2809 24.7308L21.4261 24.4651C20.4963 24.379 19.5833 24.7081 18.9224 25.3689L18.804 25.4874C18.1871 26.1043 17.8539 26.9576 17.89 27.8291C17.8983 28.0382 17.8233 28.2363 17.6785 28.3876C17.5336 28.5385 17.3384 28.6213 17.1292 28.6213H15.26C14.8227 28.6213 14.3988 28.7125 14.0064 28.8846C16.5526 24.6035 20.6389 21.3418 25.4967 19.8697L26.2727 20.3011ZM49.5315 39.3022C49.3797 39.4545 49.2033 39.4716 49.1103 39.467C49.0182 39.4637 48.8428 39.4332 48.7031 39.2694L48.3967 38.9103C47.4221 37.7677 45.7515 37.5446 44.5108 38.391L43.7319 38.9223C42.9304 39.4693 42.4519 40.3754 42.4519 41.3458V47.2583L37.0744 52.8884C35.5334 52.8361 34.2959 51.5658 34.2959 50.0123V47.0445C34.2959 46.889 34.2788 46.7326 34.2445 46.5803L33.717 44.2137C33.4976 43.2307 32.6415 42.5444 31.6345 42.5444H30.1938L28.023 40.3736C27.2811 39.6317 27.103 38.5058 27.5801 37.5714L28.0234 36.7033C28.1715 36.4136 28.4654 36.2331 28.7912 36.2331C29.9675 36.2331 30.9246 35.2761 30.9246 34.0997V32.4425L32.5133 31.6696C33.0774 31.3952 33.4902 30.8899 33.6466 30.2822C33.7878 29.7334 33.7049 29.1563 33.4208 28.6722L34.711 27.0724H36.893L38.5123 27.7768C38.7821 27.8938 39.0681 27.9535 39.3628 27.9535H48.0631C50.091 30.9755 51.3219 34.574 51.4552 38.447C50.7282 38.4836 50.0502 38.7839 49.5315 39.3022ZM58.663 7.00963C58.2604 7.4127 57.7249 7.63438 57.1552 7.63438C56.5856 7.63438 56.0501 7.4127 55.6475 7.00963C55.2444 6.60701 55.0228 6.07158 55.0228 5.5019C55.0228 4.93222 55.2444 4.39679 55.6475 3.99417C56.0501 3.59109 56.5856 3.36942 57.1552 3.36942C57.7249 3.36942 58.2604 3.59109 58.663 3.99417C59.0661 4.39679 59.2877 4.93222 59.2877 5.5019C59.2877 6.07158 59.0661 6.60701 58.663 7.00963Z"/>
</mask>
<path d="M61.6571 5.5019C61.6571 4.2996 61.1888 3.16904 60.3387 2.31845C59.4881 1.46833 58.3575 1 57.1552 1C55.9529 1 54.8224 1.46833 53.9718 2.31845C53.1217 3.16904 52.6533 4.2996 52.6533 5.5019C52.6533 6.70419 53.1217 7.83476 53.9718 8.68534C54.5123 9.2254 55.1658 9.6109 55.8784 9.82053V21.775L50.4186 27.2348C46.6349 21.1933 40.0653 17.0662 32.5235 16.6701L32.5184 8.87647C34.1603 8.36788 35.3566 6.83516 35.3566 5.02801C35.3566 2.80715 33.5494 1 31.3286 1C29.1077 1 27.3006 2.80715 27.3006 5.02801C27.3006 6.83886 28.5015 8.37389 30.149 8.87925L30.154 16.6687C28.5454 16.7515 26.9822 17.0056 25.4795 17.4105C25.3661 17.4244 25.256 17.4545 25.1514 17.4999C19.742 19.046 15.1601 22.5696 12.2385 27.2348L6.7787 21.775V9.82053C7.49184 9.6109 8.14528 9.2254 8.68534 8.68534C9.53546 7.83476 10.0038 6.70419 10.0038 5.5019C10.0038 4.2996 9.53546 3.16904 8.68534 2.31845C7.83476 1.46833 6.70419 1 5.5019 1C4.2996 1 3.16904 1.46833 2.31845 2.31845C1.46833 3.16904 1 4.2996 1 5.5019C1 6.70419 1.46833 7.83476 2.31845 8.68534C2.90479 9.27168 3.62441 9.67615 4.40928 9.87098V22.2655C4.40928 22.5798 4.53377 22.881 4.7559 23.1032L11.045 29.3918C9.61876 32.3448 8.81908 35.6546 8.81908 39.1477C8.81908 49.4542 15.7862 58.4251 25.7618 60.9634C25.8599 60.9884 25.9585 61 26.0548 61C26.5837 61 27.0659 60.6432 27.2024 60.1073C27.3635 59.4733 26.9803 58.8286 26.3463 58.6671C22.652 57.7272 19.4199 55.8007 16.8992 53.2119L18.3491 50.519C18.4106 50.4052 18.5291 50.3344 18.6582 50.3344C19.786 50.3344 20.8096 49.6249 21.2053 48.5693L22.0915 46.2055C22.1151 46.1439 22.1549 46.0898 22.2077 46.0495L22.4395 45.8732C23.0638 45.3975 23.4526 44.6751 23.5053 43.892C23.5576 43.1086 23.2698 42.3408 22.7144 41.7855L21.384 40.455C21.3455 40.4166 21.3057 40.3791 21.2664 40.3444L18.3972 37.7991C17.8988 37.3576 17.2578 37.1142 16.5919 37.1142H11.2908C11.4301 35.7291 11.711 34.3852 12.1178 33.0964L14.8125 31.137C14.9435 31.0417 15.098 30.9912 15.26 30.9912H17.1292C17.9895 30.9912 18.7919 30.6492 19.3875 30.0286C19.9836 29.4076 20.2923 28.5922 20.2571 27.7323C20.2483 27.5204 20.3293 27.3131 20.4797 27.1631L20.5982 27.0446C20.7587 26.8836 20.9804 26.804 21.2067 26.8248L24.0616 27.0905C25.3388 27.2094 26.5448 26.549 27.1335 25.4092L28.6852 22.4025C29.2322 21.3428 29.123 20.1261 28.4973 19.208C29.4229 19.077 30.3678 19.0076 31.3286 19.0076C37.2142 19.0076 42.5176 21.5455 46.2032 25.5841H39.4114L37.7926 24.8802C37.5228 24.7627 37.2364 24.703 36.9421 24.703H34.5981C33.9497 24.703 33.3444 24.9927 32.9372 25.4976L31.4697 27.3172C30.9324 27.9832 30.8524 28.9087 31.2439 29.6524L29.7556 30.3766C29.0263 30.7311 28.5551 31.4845 28.5551 32.2948V33.8725C27.4301 33.953 26.4319 34.6097 25.9127 35.6259L25.4698 36.4941C24.5239 38.3461 24.8765 40.5786 26.3472 42.0493L28.5871 44.2887C28.9897 44.6917 29.5256 44.9139 30.0957 44.9139H31.4457L31.9265 47.0704V50.0123C31.9265 52.9056 34.2802 55.2597 37.1739 55.2597C37.7538 55.2597 38.316 55.0191 38.7168 54.5998L44.2303 48.8262C44.6112 48.4273 44.8213 47.9039 44.8213 47.3527V41.3458C44.8213 41.1593 44.9134 40.9849 45.0675 40.8794L45.8468 40.3481C46.0852 40.1852 46.4068 40.2278 46.5942 40.4481L46.9006 40.8072C47.43 41.4278 48.2014 41.8021 49.0168 41.8345C49.8327 41.8702 50.6305 41.5546 51.2072 40.9779C51.2622 40.9229 51.327 40.8812 51.3969 40.853C50.6833 49.3329 44.6922 56.5217 36.3386 58.6602C35.7046 58.8222 35.3223 59.4677 35.4848 60.1013C35.6467 60.7353 36.2923 61.1175 36.9263 60.9556C46.8834 58.4066 53.8381 49.4389 53.8381 39.1477C53.8381 35.6546 53.0384 32.3448 51.6121 29.3918L57.9012 23.1032C58.1234 22.881 58.2479 22.5798 58.2479 22.2655V9.87098C59.0327 9.67615 59.7524 9.27168 60.3387 8.68534C61.1888 7.83476 61.6571 6.70419 61.6571 5.5019ZM3.36942 5.5019C3.36942 4.93222 3.59109 4.39679 3.99417 3.99417C4.39679 3.59109 4.93222 3.36942 5.5019 3.36942C6.07158 3.36942 6.60701 3.59109 7.00963 3.99417C7.4127 4.39679 7.63438 4.93222 7.63438 5.5019C7.63438 6.07158 7.4127 6.60701 7.00963 7.00963C6.60701 7.4127 6.07158 7.63438 5.5019 7.63438C4.93222 7.63438 4.39679 7.4127 3.99417 7.00963C3.59109 6.60701 3.36942 6.07158 3.36942 5.5019ZM31.3286 3.36942C32.243 3.36942 32.9872 4.11357 32.9872 5.02801C32.9872 5.94246 32.243 6.68661 31.3286 6.68661C30.4141 6.68661 29.67 5.94246 29.67 5.02801C29.67 4.11357 30.4141 3.36942 31.3286 3.36942ZM16.8247 39.5716L19.6957 42.1182C19.7008 42.1229 19.7059 42.1275 19.7096 42.1312L21.0392 43.4607C21.1373 43.5588 21.1452 43.6732 21.1415 43.7324C21.1373 43.7916 21.1142 43.9041 21.0035 43.9883L20.7717 44.1646C20.364 44.4756 20.053 44.8935 19.8734 45.3734L18.9868 47.7373C18.9359 47.8733 18.8035 47.965 18.6582 47.965C17.6558 47.965 16.7381 48.5129 16.2629 49.3954L15.2457 51.2845C12.743 47.9645 11.2639 43.8661 11.1917 39.4832H16.5919C16.678 39.4832 16.7608 39.5146 16.8247 39.5716ZM26.2727 20.3011C26.6346 20.5019 26.7693 20.9476 26.5796 21.3155L25.0279 24.3221C24.8849 24.5993 24.5905 24.7599 24.2809 24.7308L21.4261 24.4651C20.4963 24.379 19.5833 24.7081 18.9224 25.3689L18.804 25.4874C18.1871 26.1043 17.8539 26.9576 17.89 27.8291C17.8983 28.0382 17.8233 28.2363 17.6785 28.3876C17.5336 28.5385 17.3384 28.6213 17.1292 28.6213H15.26C14.8227 28.6213 14.3988 28.7125 14.0064 28.8846C16.5526 24.6035 20.6389 21.3418 25.4967 19.8697L26.2727 20.3011ZM49.5315 39.3022C49.3797 39.4545 49.2033 39.4716 49.1103 39.467C49.0182 39.4637 48.8428 39.4332 48.7031 39.2694L48.3967 38.9103C47.4221 37.7677 45.7515 37.5446 44.5108 38.391L43.7319 38.9223C42.9304 39.4693 42.4519 40.3754 42.4519 41.3458V47.2583L37.0744 52.8884C35.5334 52.8361 34.2959 51.5658 34.2959 50.0123V47.0445C34.2959 46.889 34.2788 46.7326 34.2445 46.5803L33.717 44.2137C33.4976 43.2307 32.6415 42.5444 31.6345 42.5444H30.1938L28.023 40.3736C27.2811 39.6317 27.103 38.5058 27.5801 37.5714L28.0234 36.7033C28.1715 36.4136 28.4654 36.2331 28.7912 36.2331C29.9675 36.2331 30.9246 35.2761 30.9246 34.0997V32.4425L32.5133 31.6696C33.0774 31.3952 33.4902 30.8899 33.6466 30.2822C33.7878 29.7334 33.7049 29.1563 33.4208 28.6722L34.711 27.0724H36.893L38.5123 27.7768C38.7821 27.8938 39.0681 27.9535 39.3628 27.9535H48.0631C50.091 30.9755 51.3219 34.574 51.4552 38.447C50.7282 38.4836 50.0502 38.7839 49.5315 39.3022ZM58.663 7.00963C58.2604 7.4127 57.7249 7.63438 57.1552 7.63438C56.5856 7.63438 56.0501 7.4127 55.6475 7.00963C55.2444 6.60701 55.0228 6.07158 55.0228 5.5019C55.0228 4.93222 55.2444 4.39679 55.6475 3.99417C56.0501 3.59109 56.5856 3.36942 57.1552 3.36942C57.7249 3.36942 58.2604 3.59109 58.663 3.99417C59.0661 4.39679 59.2877 4.93222 59.2877 5.5019C59.2877 6.07158 59.0661 6.60701 58.663 7.00963Z" fill="black"/>
<path d="M61.6571 5.5019C61.6571 4.2996 61.1888 3.16904 60.3387 2.31845C59.4881 1.46833 58.3575 1 57.1552 1C55.9529 1 54.8224 1.46833 53.9718 2.31845C53.1217 3.16904 52.6533 4.2996 52.6533 5.5019C52.6533 6.70419 53.1217 7.83476 53.9718 8.68534C54.5123 9.2254 55.1658 9.6109 55.8784 9.82053V21.775L50.4186 27.2348C46.6349 21.1933 40.0653 17.0662 32.5235 16.6701L32.5184 8.87647C34.1603 8.36788 35.3566 6.83516 35.3566 5.02801C35.3566 2.80715 33.5494 1 31.3286 1C29.1077 1 27.3006 2.80715 27.3006 5.02801C27.3006 6.83886 28.5015 8.37389 30.149 8.87925L30.154 16.6687C28.5454 16.7515 26.9822 17.0056 25.4795 17.4105C25.3661 17.4244 25.256 17.4545 25.1514 17.4999C19.742 19.046 15.1601 22.5696 12.2385 27.2348L6.7787 21.775V9.82053C7.49184 9.6109 8.14528 9.2254 8.68534 8.68534C9.53546 7.83476 10.0038 6.70419 10.0038 5.5019C10.0038 4.2996 9.53546 3.16904 8.68534 2.31845C7.83476 1.46833 6.70419 1 5.5019 1C4.2996 1 3.16904 1.46833 2.31845 2.31845C1.46833 3.16904 1 4.2996 1 5.5019C1 6.70419 1.46833 7.83476 2.31845 8.68534C2.90479 9.27168 3.62441 9.67615 4.40928 9.87098V22.2655C4.40928 22.5798 4.53377 22.881 4.7559 23.1032L11.045 29.3918C9.61876 32.3448 8.81908 35.6546 8.81908 39.1477C8.81908 49.4542 15.7862 58.4251 25.7618 60.9634C25.8599 60.9884 25.9585 61 26.0548 61C26.5837 61 27.0659 60.6432 27.2024 60.1073C27.3635 59.4733 26.9803 58.8286 26.3463 58.6671C22.652 57.7272 19.4199 55.8007 16.8992 53.2119L18.3491 50.519C18.4106 50.4052 18.5291 50.3344 18.6582 50.3344C19.786 50.3344 20.8096 49.6249 21.2053 48.5693L22.0915 46.2055C22.1151 46.1439 22.1549 46.0898 22.2077 46.0495L22.4395 45.8732C23.0638 45.3975 23.4526 44.6751 23.5053 43.892C23.5576 43.1086 23.2698 42.3408 22.7144 41.7855L21.384 40.455C21.3455 40.4166 21.3057 40.3791 21.2664 40.3444L18.3972 37.7991C17.8988 37.3576 17.2578 37.1142 16.5919 37.1142H11.2908C11.4301 35.7291 11.711 34.3852 12.1178 33.0964L14.8125 31.137C14.9435 31.0417 15.098 30.9912 15.26 30.9912H17.1292C17.9895 30.9912 18.7919 30.6492 19.3875 30.0286C19.9836 29.4076 20.2923 28.5922 20.2571 27.7323C20.2483 27.5204 20.3293 27.3131 20.4797 27.1631L20.5982 27.0446C20.7587 26.8836 20.9804 26.804 21.2067 26.8248L24.0616 27.0905C25.3388 27.2094 26.5448 26.549 27.1335 25.4092L28.6852 22.4025C29.2322 21.3428 29.123 20.1261 28.4973 19.208C29.4229 19.077 30.3678 19.0076 31.3286 19.0076C37.2142 19.0076 42.5176 21.5455 46.2032 25.5841H39.4114L37.7926 24.8802C37.5228 24.7627 37.2364 24.703 36.9421 24.703H34.5981C33.9497 24.703 33.3444 24.9927 32.9372 25.4976L31.4697 27.3172C30.9324 27.9832 30.8524 28.9087 31.2439 29.6524L29.7556 30.3766C29.0263 30.7311 28.5551 31.4845 28.5551 32.2948V33.8725C27.4301 33.953 26.4319 34.6097 25.9127 35.6259L25.4698 36.4941C24.5239 38.3461 24.8765 40.5786 26.3472 42.0493L28.5871 44.2887C28.9897 44.6917 29.5256 44.9139 30.0957 44.9139H31.4457L31.9265 47.0704V50.0123C31.9265 52.9056 34.2802 55.2597 37.1739 55.2597C37.7538 55.2597 38.316 55.0191 38.7168 54.5998L44.2303 48.8262C44.6112 48.4273 44.8213 47.9039 44.8213 47.3527V41.3458C44.8213 41.1593 44.9134 40.9849 45.0675 40.8794L45.8468 40.3481C46.0852 40.1852 46.4068 40.2278 46.5942 40.4481L46.9006 40.8072C47.43 41.4278 48.2014 41.8021 49.0168 41.8345C49.8327 41.8702 50.6305 41.5546 51.2072 40.9779C51.2622 40.9229 51.327 40.8812 51.3969 40.853C50.6833 49.3329 44.6922 56.5217 36.3386 58.6602C35.7046 58.8222 35.3223 59.4677 35.4848 60.1013C35.6467 60.7353 36.2923 61.1175 36.9263 60.9556C46.8834 58.4066 53.8381 49.4389 53.8381 39.1477C53.8381 35.6546 53.0384 32.3448 51.6121 29.3918L57.9012 23.1032C58.1234 22.881 58.2479 22.5798 58.2479 22.2655V9.87098C59.0327 9.67615 59.7524 9.27168 60.3387 8.68534C61.1888 7.83476 61.6571 6.70419 61.6571 5.5019ZM3.36942 5.5019C3.36942 4.93222 3.59109 4.39679 3.99417 3.99417C4.39679 3.59109 4.93222 3.36942 5.5019 3.36942C6.07158 3.36942 6.60701 3.59109 7.00963 3.99417C7.4127 4.39679 7.63438 4.93222 7.63438 5.5019C7.63438 6.07158 7.4127 6.60701 7.00963 7.00963C6.60701 7.4127 6.07158 7.63438 5.5019 7.63438C4.93222 7.63438 4.39679 7.4127 3.99417 7.00963C3.59109 6.60701 3.36942 6.07158 3.36942 5.5019ZM31.3286 3.36942C32.243 3.36942 32.9872 4.11357 32.9872 5.02801C32.9872 5.94246 32.243 6.68661 31.3286 6.68661C30.4141 6.68661 29.67 5.94246 29.67 5.02801C29.67 4.11357 30.4141 3.36942 31.3286 3.36942ZM16.8247 39.5716L19.6957 42.1182C19.7008 42.1229 19.7059 42.1275 19.7096 42.1312L21.0392 43.4607C21.1373 43.5588 21.1452 43.6732 21.1415 43.7324C21.1373 43.7916 21.1142 43.9041 21.0035 43.9883L20.7717 44.1646C20.364 44.4756 20.053 44.8935 19.8734 45.3734L18.9868 47.7373C18.9359 47.8733 18.8035 47.965 18.6582 47.965C17.6558 47.965 16.7381 48.5129 16.2629 49.3954L15.2457 51.2845C12.743 47.9645 11.2639 43.8661 11.1917 39.4832H16.5919C16.678 39.4832 16.7608 39.5146 16.8247 39.5716ZM26.2727 20.3011C26.6346 20.5019 26.7693 20.9476 26.5796 21.3155L25.0279 24.3221C24.8849 24.5993 24.5905 24.7599 24.2809 24.7308L21.4261 24.4651C20.4963 24.379 19.5833 24.7081 18.9224 25.3689L18.804 25.4874C18.1871 26.1043 17.8539 26.9576 17.89 27.8291C17.8983 28.0382 17.8233 28.2363 17.6785 28.3876C17.5336 28.5385 17.3384 28.6213 17.1292 28.6213H15.26C14.8227 28.6213 14.3988 28.7125 14.0064 28.8846C16.5526 24.6035 20.6389 21.3418 25.4967 19.8697L26.2727 20.3011ZM49.5315 39.3022C49.3797 39.4545 49.2033 39.4716 49.1103 39.467C49.0182 39.4637 48.8428 39.4332 48.7031 39.2694L48.3967 38.9103C47.4221 37.7677 45.7515 37.5446 44.5108 38.391L43.7319 38.9223C42.9304 39.4693 42.4519 40.3754 42.4519 41.3458V47.2583L37.0744 52.8884C35.5334 52.8361 34.2959 51.5658 34.2959 50.0123V47.0445C34.2959 46.889 34.2788 46.7326 34.2445 46.5803L33.717 44.2137C33.4976 43.2307 32.6415 42.5444 31.6345 42.5444H30.1938L28.023 40.3736C27.2811 39.6317 27.103 38.5058 27.5801 37.5714L28.0234 36.7033C28.1715 36.4136 28.4654 36.2331 28.7912 36.2331C29.9675 36.2331 30.9246 35.2761 30.9246 34.0997V32.4425L32.5133 31.6696C33.0774 31.3952 33.4902 30.8899 33.6466 30.2822C33.7878 29.7334 33.7049 29.1563 33.4208 28.6722L34.711 27.0724H36.893L38.5123 27.7768C38.7821 27.8938 39.0681 27.9535 39.3628 27.9535H48.0631C50.091 30.9755 51.3219 34.574 51.4552 38.447C50.7282 38.4836 50.0502 38.7839 49.5315 39.3022ZM58.663 7.00963C58.2604 7.4127 57.7249 7.63438 57.1552 7.63438C56.5856 7.63438 56.0501 7.4127 55.6475 7.00963C55.2444 6.60701 55.0228 6.07158 55.0228 5.5019C55.0228 4.93222 55.2444 4.39679 55.6475 3.99417C56.0501 3.59109 56.5856 3.36942 57.1552 3.36942C57.7249 3.36942 58.2604 3.59109 58.663 3.99417C59.0661 4.39679 59.2877 4.93222 59.2877 5.5019C59.2877 6.07158 59.0661 6.60701 58.663 7.00963Z" stroke="black" stroke-width="0.6" mask="url(#path-1-outside-1_138:57)"/>
</svg>
