<svg width="52" height="52" viewBox="0 0 52 52" fill="black" xmlns="http://www.w3.org/2000/svg">
<mask id="path-1-outside-1_138:70" maskUnits="userSpaceOnUse" x="0" y="0" width="52" height="52">
<rect fill="white" width="52" height="52"/>
<path fill-rule="evenodd" clip-rule="evenodd" d="M48.0703 25.6094C49.6858 25.6094 51 26.9235 51 28.5391V32.4453C51 33.1953 50.7166 33.8796 50.2516 34.3984C50.7166 34.9172 51 35.6016 51 36.3516V40.2578C51 41.0078 50.7166 41.6921 50.2516 42.2109C50.7166 42.7297 51 43.4141 51 44.1641V48.0703C51 49.6858 49.6858 51 48.0703 51H31.2734C29.6579 51 28.3438 49.6858 28.3438 48.0703V46.6921C26.9331 46.9579 25.493 47.0938 24.0469 47.0938C22.2238 47.0938 20.4084 46.8801 18.6514 46.4586C18.1272 46.3327 17.8037 45.8055 17.9296 45.281C18.0555 44.7565 18.5827 44.4338 19.1072 44.5593C20.7151 44.9449 22.3768 45.1406 24.0469 45.1406C25.4957 45.1406 26.9369 44.9919 28.3438 44.7008V44.1641C28.3438 43.4141 28.6272 42.7297 29.0922 42.2109C28.6272 41.6921 28.3438 41.0078 28.3438 40.2578V37.8984C25.91 37.4746 24.0537 35.3483 24.0537 32.7955V29.7239L23.5075 27.2737L21.9099 27.2691C21.3865 27.2691 20.8948 27.0654 20.5248 26.6954L18.2066 24.3772C16.7612 22.9322 16.4148 20.7384 17.3441 18.918L17.8026 18.0197C18.3344 16.9786 19.3903 16.332 20.5591 16.332L20.5648 14.4586C20.5648 13.7144 20.9974 13.0228 21.6665 12.6974L23.448 11.8307C22.9479 11.1112 22.9791 10.1412 23.5258 9.46329L25.0444 7.57997C25.4183 7.11649 25.9741 6.8506 26.5692 6.8506H28.9949C29.2654 6.8506 29.5282 6.90553 29.7762 7.01349L31.4981 7.76193L37.4399 7.76231C33.7946 4.759 29.1277 2.95312 24.0469 2.95312C22.8925 2.95312 21.76 3.04773 20.6556 3.22702C21.4708 4.12576 21.6791 5.459 21.0893 6.6015L19.4834 9.71315C18.9211 10.8026 17.769 11.4324 16.5487 11.3191L13.5946 11.0445C13.286 11.0159 12.9839 11.125 12.7649 11.3439L12.6421 11.4668C12.4376 11.6709 12.3274 11.9539 12.3392 12.2427C12.3728 13.064 12.0779 13.8429 11.5087 14.4357C10.9392 15.0289 10.1732 15.3555 9.35114 15.3555H7.4167C7.19583 15.3555 6.98488 15.4241 6.80635 15.5538L3.95219 17.6294C3.48528 19.0882 3.17361 20.6152 3.03552 22.1914H8.79495C9.42323 22.1914 10.0279 22.4211 10.4978 22.8376L13.4676 25.472C13.5061 25.506 13.5431 25.5411 13.5793 25.5773L14.9553 26.9533C15.4791 27.4767 15.7511 28.2011 15.7011 28.94C15.6515 29.6789 15.2853 30.3598 14.6959 30.8088L14.456 30.9915C14.3644 31.0613 14.2942 31.1556 14.2538 31.2635L13.3363 33.7099C12.9629 34.7059 11.9974 35.375 10.9339 35.375C10.708 35.375 10.5013 35.4986 10.3941 35.6973L8.81441 38.6312C9.64449 39.5014 10.552 40.3051 11.5328 41.0291C11.9665 41.3496 12.0584 41.9611 11.7384 42.3948C11.5469 42.6542 11.2512 42.7915 10.9518 42.7915C10.7504 42.7915 10.547 42.7294 10.3727 42.6004C7.52962 40.502 5.17213 37.7367 3.55508 34.604C1.88348 31.3661 1 27.7155 1 24.0469C1 17.8907 3.39716 12.1031 7.75011 7.75011C12.1031 3.39716 17.8907 1 24.0469 1C30.203 1 35.9907 3.39716 40.3436 7.75011C44.6966 12.1031 47.0938 17.8907 47.0938 24.0469C47.0938 24.5672 47.0739 25.0894 47.0392 25.6094H48.0703ZM12.1713 26.9331L9.2016 24.299C9.08945 24.1995 8.94525 24.1445 8.79495 24.1445H2.95465C2.97678 28.8534 4.59726 33.3963 7.44798 37.0485L8.67441 34.7711C9.12263 33.9388 9.98819 33.4219 10.9335 33.4219C11.1875 33.4219 11.4183 33.262 11.5076 33.0244L12.4246 30.578C12.5944 30.1252 12.8877 29.7308 13.2723 29.4378L13.5122 29.2551C13.7048 29.1082 13.7453 28.9125 13.7525 28.8088C13.7594 28.705 13.7453 28.5055 13.5744 28.3342L12.198 26.9583C12.1897 26.9495 12.1805 26.9411 12.1713 26.9331ZM19.3537 5.70581C19.6123 5.20456 19.4288 4.59726 18.9356 4.32298L18.0403 3.82593C12.5932 5.44679 8.06139 9.21266 5.42886 14.1409L5.65775 13.9742C6.17235 13.5999 6.78041 13.4023 7.4167 13.4023H9.35114C9.63609 13.4023 9.90198 13.289 10.0996 13.0834C10.2968 12.8778 10.3994 12.6074 10.3876 12.3224C10.3536 11.49 10.6718 10.6745 11.2608 10.0855L11.3836 9.96263C12.0149 9.33168 12.887 9.01697 13.7754 9.09975L16.7295 9.3744C17.1533 9.41408 17.5524 9.19511 17.7477 8.81746L19.3537 5.70581ZM49.0469 28.5391C49.0469 28.0004 48.6089 27.5625 48.0703 27.5625H31.2734C30.7348 27.5625 30.2969 28.0004 30.2969 28.5391V32.4453C30.2969 32.9839 30.7348 33.4219 31.2734 33.4219H48.0703C48.6089 33.4219 49.0469 32.9839 49.0469 32.4453V28.5391ZM48.0703 41.2344C48.6089 41.2344 49.0469 40.7964 49.0469 40.2578V36.3516C49.0469 35.8129 48.6089 35.375 48.0703 35.375H31.2734C30.7348 35.375 30.2969 35.8129 30.2969 36.3516V40.2578C30.2969 40.7964 30.7348 41.2344 31.2734 41.2344H48.0703ZM36.9001 23.826V25.6094H45.0815C45.1193 25.0902 45.1406 24.5676 45.1406 24.0469C45.1406 23.7039 45.1319 23.3633 45.1154 23.0245H44.1721C43.9493 23.0245 43.7399 23.1111 43.5827 23.2687C43.0345 23.8165 42.2762 24.114 41.5018 24.0824C40.7274 24.0518 39.9946 23.6959 39.4918 23.1066L39.1744 22.7346C38.8975 22.41 38.4226 22.3467 38.0701 22.587L37.264 23.1375C37.0363 23.2927 36.9001 23.5502 36.9001 23.826ZM26.0069 29.7239V32.7955C26.0069 34.2787 27.0124 35.5306 28.3773 35.9072C28.4654 35.3327 28.721 34.8127 29.0922 34.3984C28.6272 33.8796 28.3438 33.1953 28.3438 32.4453V28.5391C28.3438 26.9235 29.6579 25.6094 31.2734 25.6094H34.9474V23.8256C34.9474 22.904 35.4017 22.0434 36.1631 21.5238L36.9692 20.9738C38.1479 20.1692 39.7348 20.3813 40.6606 21.467L40.9776 21.8389C41.1302 22.0178 41.3439 22.1216 41.5788 22.1308C41.8146 22.1395 42.0351 22.0537 42.2014 21.8874C42.7278 21.3609 43.4278 21.071 44.1721 21.071H44.9297C44.3128 16.7204 42.3639 12.7931 39.5094 9.71544H31.5C31.2296 9.71544 30.9671 9.66089 30.7192 9.55293L28.9972 8.80449L26.5692 8.80373L25.0459 10.6893C25.3778 11.1665 25.4858 11.7559 25.3427 12.3132C25.1993 12.871 24.8201 13.3352 24.3025 13.587L22.521 14.4537L22.5179 16.3263C22.5179 17.4062 21.6394 18.2852 20.5591 18.2852C20.128 18.2852 19.7382 18.5236 19.5421 18.9077L19.0836 19.8061C18.5404 20.8696 18.7429 22.1517 19.5875 22.9963L21.9057 25.3145L23.5021 25.316C24.4264 25.316 25.2126 25.9462 25.4137 26.8484L25.9599 29.2978C25.9908 29.437 26.0069 29.5805 26.0069 29.7239ZM48.0703 49.0469C48.6089 49.0469 49.0469 48.6089 49.0469 48.0703V44.1641C49.0469 43.6254 48.6089 43.1875 48.0703 43.1875H31.2734C30.7348 43.1875 30.2969 43.6254 30.2969 44.1641V45.2493C30.3339 45.4035 30.3316 45.558 30.2969 45.7025V48.0703C30.2969 48.6089 30.7348 49.0469 31.2734 49.0469H48.0703ZM32.995 39.2812C33.2529 39.2812 33.5039 39.1767 33.6866 38.9951C33.8682 38.8136 33.9716 38.5614 33.9716 38.3047C33.9716 38.048 33.8682 37.7958 33.6866 37.6142C33.5039 37.4326 33.2529 37.3281 32.995 37.3281C32.7383 37.3281 32.4865 37.4326 32.3046 37.6142C32.123 37.7958 32.0196 38.048 32.0196 38.3047C32.0196 38.5614 32.123 38.8136 32.3046 38.9951C32.4873 39.1767 32.7383 39.2812 32.995 39.2812ZM32.995 45.1406C32.7383 45.1406 32.4865 45.2451 32.3046 45.4267C32.123 45.6083 32.0196 45.8605 32.0196 46.1172C32.0196 46.3739 32.123 46.6261 32.3046 46.8076C32.4873 46.9892 32.7383 47.0938 32.995 47.0938C33.2529 47.0938 33.5039 46.9892 33.6866 46.8076C33.8682 46.6261 33.9716 46.3739 33.9716 46.1172C33.9716 45.8605 33.8682 45.6083 33.6866 45.4267C33.5039 45.2451 33.2529 45.1406 32.995 45.1406ZM36.5236 45.1406C36.2665 45.1406 36.0155 45.2451 35.8331 45.4267C35.6512 45.6083 35.547 45.8605 35.547 46.1172C35.547 46.3739 35.6512 46.6261 35.8331 46.8076C36.0147 46.9892 36.2665 47.0938 36.5236 47.0938C36.7811 47.0938 37.0321 46.9892 37.2148 46.8076C37.3964 46.6261 37.5002 46.3739 37.5002 46.1172C37.5002 45.8605 37.3964 45.6083 37.2148 45.4267C37.0321 45.2451 36.7803 45.1406 36.5236 45.1406ZM41.4633 45.1406H46.1717C46.7111 45.1406 47.1483 45.5778 47.1483 46.1172C47.1483 46.6566 46.7111 47.0938 46.1717 47.0938H41.4633C40.9239 47.0938 40.4867 46.6566 40.4867 46.1172C40.4867 45.5778 40.9239 45.1406 41.4633 45.1406ZM37.2148 38.9951C37.0321 39.1767 36.7811 39.2812 36.5236 39.2812C36.2665 39.2812 36.0147 39.1767 35.8331 38.9951C35.6512 38.8136 35.547 38.5614 35.547 38.3047C35.547 38.048 35.6512 37.7958 35.8331 37.6142C36.0147 37.4326 36.2665 37.3281 36.5236 37.3281C36.7811 37.3281 37.0321 37.4326 37.2148 37.6142C37.3964 37.7958 37.5002 38.048 37.5002 38.3047C37.5002 38.5614 37.3964 38.8136 37.2148 38.9951ZM41.4633 39.2812H46.1717C46.7111 39.2812 47.1483 38.8441 47.1483 38.3047C47.1483 37.7653 46.7111 37.3281 46.1717 37.3281H41.4633C40.9239 37.3281 40.4867 37.7653 40.4867 38.3047C40.4867 38.8441 40.9239 39.2812 41.4633 39.2812ZM32.995 29.5156C32.7383 29.5156 32.4873 29.6201 32.3046 29.8017C32.123 29.9833 32.0196 30.2355 32.0196 30.4922C32.0196 30.7489 32.123 31.0011 32.3046 31.1826C32.4865 31.3642 32.7383 31.4688 32.995 31.4688C33.2529 31.4688 33.5039 31.3642 33.6866 31.1826C33.8682 31.0011 33.9716 30.7489 33.9716 30.4922C33.9716 30.2355 33.8682 29.9833 33.6866 29.8017C33.5039 29.6201 33.2529 29.5156 32.995 29.5156ZM35.8331 31.1826C35.6512 31.0011 35.547 30.7489 35.547 30.4922C35.547 30.2355 35.6512 29.9833 35.8331 29.8017C36.0147 29.6201 36.2665 29.5156 36.5236 29.5156C36.7811 29.5156 37.0321 29.6201 37.2148 29.8017C37.3964 29.9833 37.5002 30.2355 37.5002 30.4922C37.5002 30.7489 37.3964 31.0011 37.2148 31.1826C37.0321 31.3642 36.7803 31.4688 36.5236 31.4688C36.2665 31.4688 36.0155 31.3642 35.8331 31.1826ZM41.4633 31.4688H46.1717C46.7111 31.4688 47.1483 31.0316 47.1483 30.4922C47.1483 29.9528 46.7111 29.5156 46.1717 29.5156H41.4633C40.9239 29.5156 40.4867 29.9528 40.4867 30.4922C40.4867 31.0316 40.9239 31.4688 41.4633 31.4688ZM14.0402 43.3702C14.2217 43.1875 14.4735 43.0841 14.7306 43.0841C14.9873 43.0841 15.2391 43.1875 15.4211 43.3702C15.6027 43.5518 15.7072 43.8036 15.7072 44.0607C15.7072 44.3174 15.6027 44.5692 15.4211 44.7511C15.2391 44.9327 14.9873 45.0372 14.7306 45.0372C14.4735 45.0372 14.2217 44.9327 14.0402 44.7511C13.8586 44.5692 13.7541 44.3174 13.7541 44.0607C13.7541 43.8028 13.8586 43.5518 14.0402 43.3702Z"/>
</mask>
<path fill-rule="evenodd" clip-rule="evenodd" d="M48.0703 25.6094C49.6858 25.6094 51 26.9235 51 28.5391V32.4453C51 33.1953 50.7166 33.8796 50.2516 34.3984C50.7166 34.9172 51 35.6016 51 36.3516V40.2578C51 41.0078 50.7166 41.6921 50.2516 42.2109C50.7166 42.7297 51 43.4141 51 44.1641V48.0703C51 49.6858 49.6858 51 48.0703 51H31.2734C29.6579 51 28.3438 49.6858 28.3438 48.0703V46.6921C26.9331 46.9579 25.493 47.0938 24.0469 47.0938C22.2238 47.0938 20.4084 46.8801 18.6514 46.4586C18.1272 46.3327 17.8037 45.8055 17.9296 45.281C18.0555 44.7565 18.5827 44.4338 19.1072 44.5593C20.7151 44.9449 22.3768 45.1406 24.0469 45.1406C25.4957 45.1406 26.9369 44.9919 28.3438 44.7008V44.1641C28.3438 43.4141 28.6272 42.7297 29.0922 42.2109C28.6272 41.6921 28.3438 41.0078 28.3438 40.2578V37.8984C25.91 37.4746 24.0537 35.3483 24.0537 32.7955V29.7239L23.5075 27.2737L21.9099 27.2691C21.3865 27.2691 20.8948 27.0654 20.5248 26.6954L18.2066 24.3772C16.7612 22.9322 16.4148 20.7384 17.3441 18.918L17.8026 18.0197C18.3344 16.9786 19.3903 16.332 20.5591 16.332L20.5648 14.4586C20.5648 13.7144 20.9974 13.0228 21.6665 12.6974L23.448 11.8307C22.9479 11.1112 22.9791 10.1412 23.5258 9.46329L25.0444 7.57997C25.4183 7.11649 25.9741 6.8506 26.5692 6.8506H28.9949C29.2654 6.8506 29.5282 6.90553 29.7762 7.01349L31.4981 7.76193L37.4399 7.76231C33.7946 4.759 29.1277 2.95312 24.0469 2.95312C22.8925 2.95312 21.76 3.04773 20.6556 3.22702C21.4708 4.12576 21.6791 5.459 21.0893 6.6015L19.4834 9.71315C18.9211 10.8026 17.769 11.4324 16.5487 11.3191L13.5946 11.0445C13.286 11.0159 12.9839 11.125 12.7649 11.3439L12.6421 11.4668C12.4376 11.6709 12.3274 11.9539 12.3392 12.2427C12.3728 13.064 12.0779 13.8429 11.5087 14.4357C10.9392 15.0289 10.1732 15.3555 9.35114 15.3555H7.4167C7.19583 15.3555 6.98488 15.4241 6.80635 15.5538L3.95219 17.6294C3.48528 19.0882 3.17361 20.6152 3.03552 22.1914H8.79495C9.42323 22.1914 10.0279 22.4211 10.4978 22.8376L13.4676 25.472C13.5061 25.506 13.5431 25.5411 13.5793 25.5773L14.9553 26.9533C15.4791 27.4767 15.7511 28.2011 15.7011 28.94C15.6515 29.6789 15.2853 30.3598 14.6959 30.8088L14.456 30.9915C14.3644 31.0613 14.2942 31.1556 14.2538 31.2635L13.3363 33.7099C12.9629 34.7059 11.9974 35.375 10.9339 35.375C10.708 35.375 10.5013 35.4986 10.3941 35.6973L8.81441 38.6312C9.64449 39.5014 10.552 40.3051 11.5328 41.0291C11.9665 41.3496 12.0584 41.9611 11.7384 42.3948C11.5469 42.6542 11.2512 42.7915 10.9518 42.7915C10.7504 42.7915 10.547 42.7294 10.3727 42.6004C7.52962 40.502 5.17213 37.7367 3.55508 34.604C1.88348 31.3661 1 27.7155 1 24.0469C1 17.8907 3.39716 12.1031 7.75011 7.75011C12.1031 3.39716 17.8907 1 24.0469 1C30.203 1 35.9907 3.39716 40.3436 7.75011C44.6966 12.1031 47.0938 17.8907 47.0938 24.0469C47.0938 24.5672 47.0739 25.0894 47.0392 25.6094H48.0703ZM12.1713 26.9331L9.2016 24.299C9.08945 24.1995 8.94525 24.1445 8.79495 24.1445H2.95465C2.97678 28.8534 4.59726 33.3963 7.44798 37.0485L8.67441 34.7711C9.12263 33.9388 9.98819 33.4219 10.9335 33.4219C11.1875 33.4219 11.4183 33.262 11.5076 33.0244L12.4246 30.578C12.5944 30.1252 12.8877 29.7308 13.2723 29.4378L13.5122 29.2551C13.7048 29.1082 13.7453 28.9125 13.7525 28.8088C13.7594 28.705 13.7453 28.5055 13.5744 28.3342L12.198 26.9583C12.1897 26.9495 12.1805 26.9411 12.1713 26.9331ZM19.3537 5.70581C19.6123 5.20456 19.4288 4.59726 18.9356 4.32298L18.0403 3.82593C12.5932 5.44679 8.06139 9.21266 5.42886 14.1409L5.65775 13.9742C6.17235 13.5999 6.78041 13.4023 7.4167 13.4023H9.35114C9.63609 13.4023 9.90198 13.289 10.0996 13.0834C10.2968 12.8778 10.3994 12.6074 10.3876 12.3224C10.3536 11.49 10.6718 10.6745 11.2608 10.0855L11.3836 9.96263C12.0149 9.33168 12.887 9.01697 13.7754 9.09975L16.7295 9.3744C17.1533 9.41408 17.5524 9.19511 17.7477 8.81746L19.3537 5.70581ZM49.0469 28.5391C49.0469 28.0004 48.6089 27.5625 48.0703 27.5625H31.2734C30.7348 27.5625 30.2969 28.0004 30.2969 28.5391V32.4453C30.2969 32.9839 30.7348 33.4219 31.2734 33.4219H48.0703C48.6089 33.4219 49.0469 32.9839 49.0469 32.4453V28.5391ZM48.0703 41.2344C48.6089 41.2344 49.0469 40.7964 49.0469 40.2578V36.3516C49.0469 35.8129 48.6089 35.375 48.0703 35.375H31.2734C30.7348 35.375 30.2969 35.8129 30.2969 36.3516V40.2578C30.2969 40.7964 30.7348 41.2344 31.2734 41.2344H48.0703ZM36.9001 23.826V25.6094H45.0815C45.1193 25.0902 45.1406 24.5676 45.1406 24.0469C45.1406 23.7039 45.1319 23.3633 45.1154 23.0245H44.1721C43.9493 23.0245 43.7399 23.1111 43.5827 23.2687C43.0345 23.8165 42.2762 24.114 41.5018 24.0824C40.7274 24.0518 39.9946 23.6959 39.4918 23.1066L39.1744 22.7346C38.8975 22.41 38.4226 22.3467 38.0701 22.587L37.264 23.1375C37.0363 23.2927 36.9001 23.5502 36.9001 23.826ZM26.0069 29.7239V32.7955C26.0069 34.2787 27.0124 35.5306 28.3773 35.9072C28.4654 35.3327 28.721 34.8127 29.0922 34.3984C28.6272 33.8796 28.3438 33.1953 28.3438 32.4453V28.5391C28.3438 26.9235 29.6579 25.6094 31.2734 25.6094H34.9474V23.8256C34.9474 22.904 35.4017 22.0434 36.1631 21.5238L36.9692 20.9738C38.1479 20.1692 39.7348 20.3813 40.6606 21.467L40.9776 21.8389C41.1302 22.0178 41.3439 22.1216 41.5788 22.1308C41.8146 22.1395 42.0351 22.0537 42.2014 21.8874C42.7278 21.3609 43.4278 21.071 44.1721 21.071H44.9297C44.3128 16.7204 42.3639 12.7931 39.5094 9.71544H31.5C31.2296 9.71544 30.9671 9.66089 30.7192 9.55293L28.9972 8.80449L26.5692 8.80373L25.0459 10.6893C25.3778 11.1665 25.4858 11.7559 25.3427 12.3132C25.1993 12.871 24.8201 13.3352 24.3025 13.587L22.521 14.4537L22.5179 16.3263C22.5179 17.4062 21.6394 18.2852 20.5591 18.2852C20.128 18.2852 19.7382 18.5236 19.5421 18.9077L19.0836 19.8061C18.5404 20.8696 18.7429 22.1517 19.5875 22.9963L21.9057 25.3145L23.5021 25.316C24.4264 25.316 25.2126 25.9462 25.4137 26.8484L25.9599 29.2978C25.9908 29.437 26.0069 29.5805 26.0069 29.7239ZM48.0703 49.0469C48.6089 49.0469 49.0469 48.6089 49.0469 48.0703V44.1641C49.0469 43.6254 48.6089 43.1875 48.0703 43.1875H31.2734C30.7348 43.1875 30.2969 43.6254 30.2969 44.1641V45.2493C30.3339 45.4035 30.3316 45.558 30.2969 45.7025V48.0703C30.2969 48.6089 30.7348 49.0469 31.2734 49.0469H48.0703ZM32.995 39.2812C33.2529 39.2812 33.5039 39.1767 33.6866 38.9951C33.8682 38.8136 33.9716 38.5614 33.9716 38.3047C33.9716 38.048 33.8682 37.7958 33.6866 37.6142C33.5039 37.4326 33.2529 37.3281 32.995 37.3281C32.7383 37.3281 32.4865 37.4326 32.3046 37.6142C32.123 37.7958 32.0196 38.048 32.0196 38.3047C32.0196 38.5614 32.123 38.8136 32.3046 38.9951C32.4873 39.1767 32.7383 39.2812 32.995 39.2812ZM32.995 45.1406C32.7383 45.1406 32.4865 45.2451 32.3046 45.4267C32.123 45.6083 32.0196 45.8605 32.0196 46.1172C32.0196 46.3739 32.123 46.6261 32.3046 46.8076C32.4873 46.9892 32.7383 47.0938 32.995 47.0938C33.2529 47.0938 33.5039 46.9892 33.6866 46.8076C33.8682 46.6261 33.9716 46.3739 33.9716 46.1172C33.9716 45.8605 33.8682 45.6083 33.6866 45.4267C33.5039 45.2451 33.2529 45.1406 32.995 45.1406ZM36.5236 45.1406C36.2665 45.1406 36.0155 45.2451 35.8331 45.4267C35.6512 45.6083 35.547 45.8605 35.547 46.1172C35.547 46.3739 35.6512 46.6261 35.8331 46.8076C36.0147 46.9892 36.2665 47.0938 36.5236 47.0938C36.7811 47.0938 37.0321 46.9892 37.2148 46.8076C37.3964 46.6261 37.5002 46.3739 37.5002 46.1172C37.5002 45.8605 37.3964 45.6083 37.2148 45.4267C37.0321 45.2451 36.7803 45.1406 36.5236 45.1406ZM41.4633 45.1406H46.1717C46.7111 45.1406 47.1483 45.5778 47.1483 46.1172C47.1483 46.6566 46.7111 47.0938 46.1717 47.0938H41.4633C40.9239 47.0938 40.4867 46.6566 40.4867 46.1172C40.4867 45.5778 40.9239 45.1406 41.4633 45.1406ZM37.2148 38.9951C37.0321 39.1767 36.7811 39.2812 36.5236 39.2812C36.2665 39.2812 36.0147 39.1767 35.8331 38.9951C35.6512 38.8136 35.547 38.5614 35.547 38.3047C35.547 38.048 35.6512 37.7958 35.8331 37.6142C36.0147 37.4326 36.2665 37.3281 36.5236 37.3281C36.7811 37.3281 37.0321 37.4326 37.2148 37.6142C37.3964 37.7958 37.5002 38.048 37.5002 38.3047C37.5002 38.5614 37.3964 38.8136 37.2148 38.9951ZM41.4633 39.2812H46.1717C46.7111 39.2812 47.1483 38.8441 47.1483 38.3047C47.1483 37.7653 46.7111 37.3281 46.1717 37.3281H41.4633C40.9239 37.3281 40.4867 37.7653 40.4867 38.3047C40.4867 38.8441 40.9239 39.2812 41.4633 39.2812ZM32.995 29.5156C32.7383 29.5156 32.4873 29.6201 32.3046 29.8017C32.123 29.9833 32.0196 30.2355 32.0196 30.4922C32.0196 30.7489 32.123 31.0011 32.3046 31.1826C32.4865 31.3642 32.7383 31.4688 32.995 31.4688C33.2529 31.4688 33.5039 31.3642 33.6866 31.1826C33.8682 31.0011 33.9716 30.7489 33.9716 30.4922C33.9716 30.2355 33.8682 29.9833 33.6866 29.8017C33.5039 29.6201 33.2529 29.5156 32.995 29.5156ZM35.8331 31.1826C35.6512 31.0011 35.547 30.7489 35.547 30.4922C35.547 30.2355 35.6512 29.9833 35.8331 29.8017C36.0147 29.6201 36.2665 29.5156 36.5236 29.5156C36.7811 29.5156 37.0321 29.6201 37.2148 29.8017C37.3964 29.9833 37.5002 30.2355 37.5002 30.4922C37.5002 30.7489 37.3964 31.0011 37.2148 31.1826C37.0321 31.3642 36.7803 31.4688 36.5236 31.4688C36.2665 31.4688 36.0155 31.3642 35.8331 31.1826ZM41.4633 31.4688H46.1717C46.7111 31.4688 47.1483 31.0316 47.1483 30.4922C47.1483 29.9528 46.7111 29.5156 46.1717 29.5156H41.4633C40.9239 29.5156 40.4867 29.9528 40.4867 30.4922C40.4867 31.0316 40.9239 31.4688 41.4633 31.4688ZM14.0402 43.3702C14.2217 43.1875 14.4735 43.0841 14.7306 43.0841C14.9873 43.0841 15.2391 43.1875 15.4211 43.3702C15.6027 43.5518 15.7072 43.8036 15.7072 44.0607C15.7072 44.3174 15.6027 44.5692 15.4211 44.7511C15.2391 44.9327 14.9873 45.0372 14.7306 45.0372C14.4735 45.0372 14.2217 44.9327 14.0402 44.7511C13.8586 44.5692 13.7541 44.3174 13.7541 44.0607C13.7541 43.8028 13.8586 43.5518 14.0402 43.3702Z" />
<path d="M50.2516 34.3984L50.0282 34.1982L49.8487 34.3984L50.0282 34.5987L50.2516 34.3984ZM50.2516 42.2109L50.0282 42.0107L49.8487 42.2109L50.0282 42.4112L50.2516 42.2109ZM28.3438 46.6921H28.6437V46.3302L28.2882 46.3973L28.3438 46.6921ZM18.6514 46.4586L18.5813 46.7503L18.5814 46.7503L18.6514 46.4586ZM19.1072 44.5593L19.1772 44.2675L19.177 44.2675L19.1072 44.5593ZM28.3438 44.7008L28.4045 44.9946L28.6437 44.9451V44.7008H28.3438ZM29.0922 42.2109L29.3156 42.4112L29.4951 42.2109L29.3156 42.0107L29.0922 42.2109ZM28.3438 37.8984H28.6437V37.6461L28.3952 37.6029L28.3438 37.8984ZM24.0537 29.7239H24.3537V29.6909L24.3466 29.6586L24.0537 29.7239ZM23.5075 27.2737L23.8003 27.2084L23.7481 26.9744L23.5083 26.9737L23.5075 27.2737ZM21.9099 27.2691L21.9107 26.9692H21.9099V27.2691ZM18.2066 24.3772L18.4187 24.1651L18.4187 24.1651L18.2066 24.3772ZM17.3441 18.918L17.6113 19.0544L17.6113 19.0544L17.3441 18.918ZM17.8026 18.0197L17.5354 17.8832L17.5354 17.8833L17.8026 18.0197ZM20.5591 16.332V16.632H20.8582L20.8591 16.3329L20.5591 16.332ZM20.5648 14.4586L20.8648 14.4595V14.4586H20.5648ZM21.6665 12.6974L21.7977 12.9672L21.7977 12.9672L21.6665 12.6974ZM23.448 11.8307L23.5792 12.1005L23.8943 11.9472L23.6943 11.6595L23.448 11.8307ZM23.5258 9.46329L23.7593 9.65161L23.7593 9.6516L23.5258 9.46329ZM25.0444 7.57997L24.8109 7.39163L24.8109 7.39166L25.0444 7.57997ZM29.7762 7.01349L29.6564 7.28855L29.6566 7.28862L29.7762 7.01349ZM31.4981 7.76193L31.3785 8.03707L31.4357 8.06193L31.4981 8.06193L31.4981 7.76193ZM37.4399 7.76231L37.4399 8.06231L38.2759 8.06237L37.6307 7.53077L37.4399 7.76231ZM20.6556 3.22702L20.6075 2.9309L20.0623 3.01942L20.4334 3.42857L20.6556 3.22702ZM21.0893 6.6015L20.8228 6.46389L20.8228 6.46391L21.0893 6.6015ZM19.4834 9.71315L19.2168 9.57556L19.2168 9.57556L19.4834 9.71315ZM16.5487 11.3191L16.5209 11.6178L16.521 11.6179L16.5487 11.3191ZM13.5946 11.0445L13.6224 10.7458L13.6223 10.7458L13.5946 11.0445ZM12.6421 11.4668L12.854 11.6791L12.8542 11.6789L12.6421 11.4668ZM12.3392 12.2427L12.6389 12.2304L12.6389 12.2304L12.3392 12.2427ZM11.5087 14.4357L11.7251 14.6435L11.7251 14.6435L11.5087 14.4357ZM6.80635 15.5538L6.63002 15.3111L6.62991 15.3112L6.80635 15.5538ZM3.95219 17.6294L3.77575 17.3868L3.69639 17.4445L3.66647 17.538L3.95219 17.6294ZM3.03552 22.1914L2.73667 22.1652L2.70809 22.4914H3.03552V22.1914ZM10.4978 22.8376L10.6969 22.6132L10.6968 22.6131L10.4978 22.8376ZM13.4676 25.472L13.2685 25.6965L13.2692 25.6971L13.4676 25.472ZM14.9553 26.9533L14.7432 27.1654L14.7433 27.1655L14.9553 26.9533ZM15.7011 28.94L15.4018 28.9197L15.4018 28.9199L15.7011 28.94ZM14.6959 30.8088L14.8777 31.0475L14.8777 31.0474L14.6959 30.8088ZM14.456 30.9915L14.2742 30.7529L14.2741 30.753L14.456 30.9915ZM14.2538 31.2635L14.5347 31.3689L14.5347 31.3687L14.2538 31.2635ZM13.3363 33.7099L13.0555 33.6045L13.0554 33.6046L13.3363 33.7099ZM10.3941 35.6973L10.13 35.5549L10.1299 35.5551L10.3941 35.6973ZM8.81441 38.6312L8.55026 38.489L8.44703 38.6807L8.59734 38.8383L8.81441 38.6312ZM11.5328 41.0291L11.711 40.7879L11.7109 40.7878L11.5328 41.0291ZM11.7384 42.3948L11.9797 42.573L11.9798 42.5729L11.7384 42.3948ZM10.3727 42.6004L10.5511 42.3592L10.5509 42.359L10.3727 42.6004ZM3.55508 34.604L3.82166 34.4664L3.82166 34.4664L3.55508 34.604ZM47.0392 25.6094L46.7399 25.5894L46.7185 25.9094H47.0392V25.6094ZM9.2016 24.299L9.00243 24.5234L9.00253 24.5235L9.2016 24.299ZM12.1713 26.9331L11.9723 27.1575L11.9738 27.1588L12.1713 26.9331ZM2.95465 24.1445V23.8445H2.65324L2.65465 24.1459L2.95465 24.1445ZM7.44798 37.0485L7.2115 37.2331L7.49424 37.5953L7.71212 37.1908L7.44798 37.0485ZM8.67441 34.7711L8.93854 34.9134L8.93855 34.9134L8.67441 34.7711ZM11.5076 33.0244L11.7884 33.1299L11.7885 33.1297L11.5076 33.0244ZM12.4246 30.578L12.1437 30.4727L12.1437 30.4727L12.4246 30.578ZM13.2723 29.4378L13.0905 29.1991L13.0904 29.1992L13.2723 29.4378ZM13.5122 29.2551L13.694 29.4938L13.6941 29.4937L13.5122 29.2551ZM13.7525 28.8088L14.0518 28.8297L14.0519 28.8286L13.7525 28.8088ZM13.5744 28.3342L13.7868 28.1223L13.7865 28.1221L13.5744 28.3342ZM12.198 26.9583L11.9812 27.1657L11.9859 27.1704L12.198 26.9583ZM18.9356 4.32298L19.0814 4.06079L19.0812 4.06069L18.9356 4.32298ZM19.3537 5.70581L19.6202 5.8434L19.6203 5.84337L19.3537 5.70581ZM18.0403 3.82593L18.1859 3.56364L18.0756 3.50241L17.9547 3.53839L18.0403 3.82593ZM5.42886 14.1409L5.16425 13.9995L5.60548 14.3834L5.42886 14.1409ZM5.65775 13.9742L5.4813 13.7315L5.48113 13.7317L5.65775 13.9742ZM10.0996 13.0834L10.3159 13.2913L10.3161 13.2911L10.0996 13.0834ZM10.3876 12.3224L10.0878 12.3346L10.0878 12.3348L10.3876 12.3224ZM11.3836 9.96263L11.1715 9.75043L11.1715 9.7505L11.3836 9.96263ZM13.7754 9.09975L13.7476 9.39845L13.7476 9.39846L13.7754 9.09975ZM16.7295 9.3744L16.7575 9.07571L16.7573 9.07569L16.7295 9.3744ZM17.7477 8.81746L18.0141 8.95527L18.0143 8.95505L17.7477 8.81746ZM36.9001 25.6094H36.6001V25.9094H36.9001V25.6094ZM45.0815 25.6094V25.9094H45.3605L45.3807 25.6311L45.0815 25.6094ZM45.1154 23.0245L45.4151 23.01L45.4013 22.7245H45.1154V23.0245ZM43.5827 23.2687L43.7948 23.4809L43.7951 23.4806L43.5827 23.2687ZM41.5018 24.0824L41.514 23.7826L41.5136 23.7826L41.5018 24.0824ZM39.4918 23.1066L39.7201 22.9118L39.72 22.9118L39.4918 23.1066ZM39.1744 22.7346L38.9462 22.9293L38.9462 22.9294L39.1744 22.7346ZM38.0701 22.587L37.9011 22.3391L37.9009 22.3392L38.0701 22.587ZM37.264 23.1375L37.433 23.3853L37.4332 23.3852L37.264 23.1375ZM28.3773 35.9072L28.2975 36.1964L28.6227 36.286L28.6739 35.9526L28.3773 35.9072ZM29.0922 34.3984L29.3156 34.5986L29.495 34.3984L29.3156 34.1982L29.0922 34.3984ZM34.9474 25.6094V25.9094H35.2474V25.6094H34.9474ZM36.1631 21.5238L36.3322 21.7716L36.3322 21.7716L36.1631 21.5238ZM36.9692 20.9738L37.1383 21.2216L37.1383 21.2215L36.9692 20.9738ZM40.6606 21.467L40.889 21.2724L40.8889 21.2723L40.6606 21.467ZM40.9776 21.8389L40.7493 22.0335L40.7494 22.0336L40.9776 21.8389ZM41.5788 22.1308L41.5672 22.4305L41.5677 22.4305L41.5788 22.1308ZM44.9297 21.071V21.371H45.2752L45.2267 21.0289L44.9297 21.071ZM39.5094 9.71544L39.7293 9.51143L39.6403 9.41544H39.5094V9.71544ZM30.7192 9.55293L30.8389 9.27787L30.8387 9.2778L30.7192 9.55293ZM28.9972 8.80449L29.1168 8.52935L29.0596 8.50451L28.9973 8.50449L28.9972 8.80449ZM26.5692 8.80373L26.5692 8.50373L26.4259 8.50368L26.3358 8.61521L26.5692 8.80373ZM25.0459 10.6893L24.8126 10.5008L24.6712 10.6759L24.7996 10.8606L25.0459 10.6893ZM25.3427 12.3132L25.6333 12.388L25.6333 12.3878L25.3427 12.3132ZM24.3025 13.587L24.1712 13.3172L24.1712 13.3172L24.3025 13.587ZM22.521 14.4537L22.3898 14.1839L22.2213 14.2659L22.221 14.4532L22.521 14.4537ZM22.5179 16.3263L22.2179 16.3258V16.3263H22.5179ZM19.5421 18.9077L19.2749 18.7713L19.2749 18.7713L19.5421 18.9077ZM19.0836 19.8061L19.3507 19.9425L19.3508 19.9425L19.0836 19.8061ZM21.9057 25.3145L21.6936 25.5266L21.7813 25.6144L21.9054 25.6145L21.9057 25.3145ZM23.5021 25.316L23.5019 25.616H23.5021V25.316ZM25.4137 26.8484L25.1209 26.9136L25.1209 26.9137L25.4137 26.8484ZM25.9599 29.2978L26.2528 29.2328L26.2528 29.2325L25.9599 29.2978ZM30.2969 45.2493H29.9969V45.2849L30.0052 45.3194L30.2969 45.2493ZM30.2969 45.7025L30.0052 45.6325L29.9969 45.667V45.7025H30.2969ZM33.6866 38.9951L33.8981 39.2079L33.8988 39.2073L33.6866 38.9951ZM33.6866 37.6142L33.8988 37.4021L33.8981 37.4014L33.6866 37.6142ZM32.3046 37.6142L32.0926 37.4019L32.0924 37.4021L32.3046 37.6142ZM32.3046 38.9951L32.0924 39.2073L32.0931 39.2079L32.3046 38.9951ZM32.3046 45.4267L32.0926 45.2144L32.0924 45.2146L32.3046 45.4267ZM32.3046 46.8076L32.0924 47.0198L32.0931 47.0204L32.3046 46.8076ZM33.6866 46.8076L33.8981 47.0204L33.8988 47.0198L33.6866 46.8076ZM33.6866 45.4267L33.8988 45.2146L33.8981 45.2139L33.6866 45.4267ZM35.8331 45.4267L35.6215 45.2141L35.6212 45.2144L35.8331 45.4267ZM35.8331 46.8076L36.0453 46.5955L36.0451 46.5953L35.8331 46.8076ZM37.2148 46.8076L37.4263 47.0204L37.427 47.0198L37.2148 46.8076ZM37.2148 45.4267L37.427 45.2146L37.4263 45.2139L37.2148 45.4267ZM37.2148 38.9951L37.4263 39.2079L37.427 39.2073L37.2148 38.9951ZM35.8331 38.9951L36.0453 38.783L36.0451 38.7828L35.8331 38.9951ZM35.8331 37.6142L36.0451 37.8266L36.0453 37.8264L35.8331 37.6142ZM37.2148 37.6142L37.427 37.4021L37.4263 37.4014L37.2148 37.6142ZM32.3046 29.8017L32.0931 29.5889L32.0924 29.5896L32.3046 29.8017ZM32.3046 31.1826L32.0924 31.3948L32.0926 31.395L32.3046 31.1826ZM33.6866 31.1826L33.8981 31.3954L33.8988 31.3948L33.6866 31.1826ZM33.6866 29.8017L33.8988 29.5896L33.8981 29.5889L33.6866 29.8017ZM35.8331 31.1826L35.6212 31.395L35.6215 31.3952L35.8331 31.1826ZM35.8331 29.8017L36.0451 30.0141L36.0453 30.0139L35.8331 29.8017ZM37.2148 29.8017L37.427 29.5896L37.4263 29.5889L37.2148 29.8017ZM37.2148 31.1826L37.4263 31.3954L37.427 31.3948L37.2148 31.1826ZM14.0402 43.3702L14.2523 43.5824L14.253 43.5817L14.0402 43.3702ZM15.4211 43.3702L15.2085 43.5819L15.2089 43.5824L15.4211 43.3702ZM15.4211 44.7511L15.633 44.9635L15.6334 44.9631L15.4211 44.7511ZM14.0402 44.7511L13.8278 44.9631L13.828 44.9633L14.0402 44.7511ZM51.3 28.5391C51.3 26.7579 49.8515 25.3094 48.0703 25.3094V25.9094C49.5202 25.9094 50.7 27.0892 50.7 28.5391H51.3ZM51.3 32.4453V28.5391H50.7V32.4453H51.3ZM50.475 34.5987C50.9871 34.0273 51.3 33.2724 51.3 32.4453H50.7C50.7 33.1182 50.446 33.732 50.0282 34.1982L50.475 34.5987ZM51.3 36.3516C51.3 35.5245 50.9871 34.7696 50.475 34.1982L50.0282 34.5987C50.446 35.0649 50.7 35.6787 50.7 36.3516H51.3ZM51.3 40.2578V36.3516H50.7V40.2578H51.3ZM50.475 42.4112C50.9871 41.8398 51.3 41.0849 51.3 40.2578H50.7C50.7 40.9307 50.446 41.5445 50.0282 42.0107L50.475 42.4112ZM51.3 44.1641C51.3 43.337 50.9871 42.5821 50.475 42.0107L50.0282 42.4112C50.446 42.8774 50.7 43.4912 50.7 44.1641H51.3ZM51.3 48.0703V44.1641H50.7V48.0703H51.3ZM48.0703 51.3C49.8515 51.3 51.3 49.8515 51.3 48.0703H50.7C50.7 49.5202 49.5202 50.7 48.0703 50.7V51.3ZM31.2734 51.3H48.0703V50.7H31.2734V51.3ZM28.0438 48.0703C28.0438 49.8515 29.4922 51.3 31.2734 51.3V50.7C29.8236 50.7 28.6437 49.5202 28.6437 48.0703H28.0438ZM28.0438 46.6921V48.0703H28.6437V46.6921H28.0438ZM24.0469 47.3937C25.5118 47.3937 26.9704 47.2562 28.3993 46.9869L28.2882 46.3973C26.8957 46.6597 25.4743 46.7938 24.0469 46.7938V47.3937ZM18.5814 46.7503C20.3616 47.1774 22.2005 47.3937 24.0469 47.3937V46.7938C22.2472 46.7938 20.4553 46.5829 18.7214 46.1669L18.5814 46.7503ZM17.6379 45.211C17.4733 45.8967 17.8962 46.5858 18.5813 46.7503L18.7214 46.1669C18.3582 46.0797 18.1342 45.7143 18.2213 45.351L17.6379 45.211ZM19.177 44.2675C18.4917 44.1035 17.8025 44.5252 17.6379 45.211L18.2213 45.351C18.3085 44.9878 18.6737 44.764 19.0374 44.851L19.177 44.2675ZM24.0469 44.8406C22.4002 44.8406 20.762 44.6477 19.1772 44.2675L19.0373 44.851C20.6683 45.2422 22.3534 45.4406 24.0469 45.4406V44.8406ZM28.283 44.407C26.896 44.694 25.4752 44.8406 24.0469 44.8406V45.4406C25.5162 45.4406 26.9778 45.2897 28.4045 44.9946L28.283 44.407ZM28.0438 44.1641V44.7008H28.6437V44.1641H28.0438ZM28.8688 42.0107C28.3566 42.5821 28.0438 43.337 28.0438 44.1641H28.6437C28.6437 43.4912 28.8977 42.8774 29.3156 42.4112L28.8688 42.0107ZM28.0438 40.2578C28.0438 41.0849 28.3566 41.8398 28.8688 42.4112L29.3156 42.0107C28.8977 41.5445 28.6437 40.9307 28.6437 40.2578H28.0438ZM28.0438 37.8984V40.2578H28.6437V37.8984H28.0438ZM23.7537 32.7955C23.7537 35.4969 25.7176 37.7456 28.2923 38.194L28.3952 37.6029C26.1023 37.2036 24.3537 35.1996 24.3537 32.7955H23.7537ZM23.7537 29.7239V32.7955H24.3537V29.7239H23.7537ZM23.2147 27.339L23.7609 29.7892L24.3466 29.6586L23.8003 27.2084L23.2147 27.339ZM21.909 27.5691L23.5066 27.5737L23.5083 26.9737L21.9107 26.9692L21.909 27.5691ZM20.3126 26.9076C20.7389 27.3338 21.3069 27.5691 21.9099 27.5691V26.9692C21.4661 26.9692 21.0507 26.7971 20.7369 26.4833L20.3126 26.9076ZM17.9944 24.5894L20.3126 26.9076L20.7369 26.4833L18.4187 24.1651L17.9944 24.5894ZM17.0769 18.7816C16.0885 20.7178 16.4571 23.0524 17.9945 24.5894L18.4187 24.1651C17.0653 22.8121 16.7411 20.759 17.6113 19.0544L17.0769 18.7816ZM17.5354 17.8833L17.0769 18.7816L17.6113 19.0544L18.0698 18.156L17.5354 17.8833ZM20.5591 16.032C19.2775 16.032 18.1184 16.7418 17.5354 17.8832L18.0698 18.1561C18.5503 17.2154 19.503 16.632 20.5591 16.632V16.032ZM20.2648 14.4577L20.2591 16.3311L20.8591 16.3329L20.8648 14.4595L20.2648 14.4577ZM21.5353 12.4276C20.7629 12.8032 20.2648 13.5996 20.2648 14.4586H20.8648C20.8648 13.8292 21.2319 13.2423 21.7977 12.9672L21.5353 12.4276ZM23.3167 11.5609L21.5353 12.4276L21.7977 12.9672L23.5792 12.1005L23.3167 11.5609ZM23.2923 9.27497C22.6611 10.0577 22.6263 11.1743 23.2016 12.0019L23.6943 11.6595C23.2694 11.0482 23.2972 10.2246 23.7593 9.65161L23.2923 9.27497ZM24.8109 7.39166L23.2923 9.27497L23.7593 9.6516L25.278 7.76828L24.8109 7.39166ZM26.5692 6.5506C25.8833 6.5506 25.2417 6.85759 24.8109 7.39163L25.2779 7.76832C25.5949 7.37538 26.0648 7.1506 26.5692 7.1506V6.5506ZM28.9949 6.5506H26.5692V7.1506H28.9949V6.5506ZM29.8959 6.73843C29.6103 6.61408 29.3067 6.5506 28.9949 6.5506V7.1506C29.224 7.1506 29.4461 7.19699 29.6564 7.28855L29.8959 6.73843ZM31.6177 7.4868L29.8958 6.73835L29.6566 7.28862L31.3785 8.03707L31.6177 7.4868ZM37.4399 7.46231L31.4981 7.46193L31.4981 8.06193L37.4399 8.06231L37.4399 7.46231ZM24.0469 3.25312C29.0553 3.25312 33.6554 5.03302 37.2491 7.99385L37.6307 7.53077C33.9338 4.48499 29.2 2.65313 24.0469 2.65313V3.25312ZM20.7037 3.52314C21.7925 3.34638 22.909 3.25312 24.0469 3.25312V2.65313C22.8761 2.65313 21.7275 2.74908 20.6075 2.9309L20.7037 3.52314ZM21.3559 6.73911C22.0043 5.48302 21.7753 4.01496 20.8778 3.02547L20.4334 3.42857C21.1663 4.23657 21.3539 5.43498 20.8228 6.46389L21.3559 6.73911ZM19.7499 9.85074L21.3559 6.73909L20.8228 6.46391L19.2168 9.57556L19.7499 9.85074ZM16.521 11.6179C17.8629 11.7424 19.1315 11.049 19.7499 9.85074L19.2168 9.57556C18.7106 10.5562 17.6751 11.1224 16.5764 11.0204L16.521 11.6179ZM13.5668 11.3432L16.5209 11.6178L16.5765 11.0204L13.6224 10.7458L13.5668 11.3432ZM12.977 11.5561C13.1329 11.4002 13.3471 11.3228 13.5669 11.3432L13.6223 10.7458C13.2249 10.7089 12.8348 10.8497 12.5528 11.1318L12.977 11.5561ZM12.8542 11.6789L12.977 11.5561L12.5528 11.1318L12.4299 11.2546L12.8542 11.6789ZM12.6389 12.2304C12.6305 12.0252 12.7092 11.8237 12.854 11.6791L12.4301 11.2544C12.166 11.518 12.0242 11.8826 12.0394 12.255L12.6389 12.2304ZM11.7251 14.6435C12.3509 13.9917 12.6758 13.1333 12.6389 12.2304L12.0394 12.2549C12.0697 12.9947 11.8049 13.6941 11.2923 14.228L11.7251 14.6435ZM9.35114 15.6555C10.2549 15.6555 11.0991 15.2956 11.7251 14.6435L11.2923 14.228C10.7793 14.7623 10.0915 15.0555 9.35114 15.0555V15.6555ZM7.4167 15.6555H9.35114V15.0555H7.4167V15.6555ZM6.98268 15.7965C7.11002 15.704 7.25927 15.6555 7.4167 15.6555V15.0555C7.1324 15.0555 6.85973 15.1442 6.63002 15.3111L6.98268 15.7965ZM4.12864 17.872L6.98279 15.7965L6.62991 15.3112L3.77575 17.3868L4.12864 17.872ZM3.33438 22.2176C3.47051 20.6637 3.77772 19.1586 4.23791 17.7209L3.66647 17.538C3.19283 19.0177 2.87672 20.5666 2.73667 22.1652L3.33438 22.2176ZM8.79495 21.8914H3.03552V22.4914H8.79495V21.8914ZM10.6968 22.6131C10.172 22.148 9.49663 21.8914 8.79495 21.8914V22.4914C9.34984 22.4914 9.8837 22.6942 10.2988 23.0621L10.6968 22.6131ZM13.6667 25.2476L10.6969 22.6132L10.2987 23.062L13.2685 25.6965L13.6667 25.2476ZM13.7915 25.3652C13.7515 25.3252 13.7099 25.2857 13.6659 25.247L13.2692 25.6971C13.3023 25.7263 13.3347 25.7569 13.3672 25.7895L13.7915 25.3652ZM15.1674 26.7412L13.7915 25.3652L13.3672 25.7895L14.7432 27.1654L15.1674 26.7412ZM16.0004 28.9602C16.0562 28.1349 15.7524 27.3257 15.1674 26.7411L14.7433 27.1655C15.2057 27.6276 15.4459 28.2673 15.4018 28.9197L16.0004 28.9602ZM14.8777 31.0474C15.5359 30.546 15.945 29.7854 16.0004 28.9601L15.4018 28.9199C15.358 29.5724 15.0346 30.1736 14.5141 30.5702L14.8777 31.0474ZM14.6377 31.2302L14.8777 31.0475L14.5142 30.5701L14.2742 30.7529L14.6377 31.2302ZM14.5347 31.3687C14.5553 31.3139 14.591 31.2658 14.6379 31.2301L14.2741 30.753C14.1378 30.8569 14.0332 30.9972 13.9728 31.1583L14.5347 31.3687ZM13.6172 33.8152L14.5347 31.3689L13.9729 31.1582L13.0555 33.6045L13.6172 33.8152ZM10.9339 35.675C12.1225 35.675 13.1999 34.9283 13.6173 33.8152L13.0554 33.6046C12.7259 34.4835 11.8723 35.075 10.9339 35.075V35.675ZM10.6581 35.8398C10.713 35.7379 10.8185 35.675 10.9339 35.675V35.075C10.5976 35.075 10.2895 35.2593 10.13 35.5549L10.6581 35.8398ZM9.07855 38.7734L10.6582 35.8396L10.1299 35.5551L8.55026 38.489L9.07855 38.7734ZM11.7109 40.7878C10.7444 40.0743 9.84986 39.282 9.03148 38.4241L8.59734 38.8383C9.43911 39.7207 10.3596 40.536 11.3546 41.2705L11.7109 40.7878ZM11.9798 42.5729C12.3981 42.0059 12.278 41.2067 11.711 40.7879L11.3545 41.2704C11.655 41.4925 11.7187 41.9162 11.497 42.2167L11.9798 42.5729ZM10.9518 43.0915C11.3424 43.0915 11.7293 42.9122 11.9797 42.573L11.497 42.2166C11.3645 42.3962 11.1601 42.4915 10.9518 42.4915V43.0915ZM10.1943 42.8416C10.4221 43.0101 10.6884 43.0915 10.9518 43.0915V42.4915C10.8123 42.4915 10.672 42.4486 10.5511 42.3592L10.1943 42.8416ZM3.28851 34.7417C4.92672 37.9153 7.3145 40.716 10.1946 42.8418L10.5509 42.359C7.74474 40.2879 5.41755 37.5581 3.82166 34.4664L3.28851 34.7417ZM0.7 24.0469C0.7 27.763 1.59479 31.4609 3.28851 34.7417L3.82166 34.4664C2.17218 31.2714 1.3 27.6679 1.3 24.0469H0.7ZM7.53797 7.53797C3.12876 11.9472 0.7 17.8112 0.7 24.0469H1.3C1.3 17.9703 3.66555 12.2589 7.96224 7.96224L7.53797 7.53797ZM24.0469 0.7C17.8112 0.7 11.9472 3.12876 7.53797 7.53797L7.96224 7.96224C12.2589 3.66555 17.9703 1.3 24.0469 1.3V0.7ZM40.5558 7.53797C36.1466 3.12876 30.2826 0.7 24.0469 0.7V1.3C30.1235 1.3 35.8348 3.66555 40.1315 7.96224L40.5558 7.53797ZM47.3937 24.0469C47.3937 17.8112 44.965 11.9472 40.5558 7.53797L40.1315 7.96224C44.4282 12.2589 46.7938 17.9703 46.7938 24.0469H47.3937ZM47.3385 25.6294C47.3736 25.1037 47.3937 24.5748 47.3937 24.0469H46.7938C46.7938 24.5596 46.7742 25.0751 46.7399 25.5894L47.3385 25.6294ZM48.0703 25.3094H47.0392V25.9094H48.0703V25.3094ZM9.00253 24.5235L11.9723 27.1575L12.3704 26.7086L9.40067 24.0746L9.00253 24.5235ZM8.79495 24.4445C8.87171 24.4445 8.94508 24.4725 9.00243 24.5234L9.40077 24.0747C9.23382 23.9265 9.01879 23.8445 8.79495 23.8445V24.4445ZM2.95465 24.4445H8.79495V23.8445H2.95465V24.4445ZM7.68447 36.8639C4.87374 33.263 3.27645 28.7842 3.25465 24.1431L2.65465 24.1459C2.6771 28.9226 4.32078 33.5297 7.2115 37.2331L7.68447 36.8639ZM8.41027 34.6289L7.18385 36.9063L7.71212 37.1908L8.93854 34.9134L8.41027 34.6289ZM10.9335 33.1219C9.87784 33.1219 8.91083 33.6993 8.41027 34.6289L8.93855 34.9134C9.33444 34.1782 10.0985 33.7219 10.9335 33.7219V33.1219ZM11.2267 32.9189C11.1814 33.0395 11.0626 33.1219 10.9335 33.1219V33.7219C11.3125 33.7219 11.6552 33.4846 11.7884 33.1299L11.2267 32.9189ZM12.1437 30.4727L11.2267 32.9191L11.7885 33.1297L12.7055 30.6833L12.1437 30.4727ZM13.0904 29.1992C12.661 29.5263 12.3333 29.967 12.1437 30.4727L12.7055 30.6833C12.8555 30.2834 13.1144 29.9352 13.4541 29.6764L13.0904 29.1992ZM13.3305 29.0164L13.0905 29.1991L13.454 29.6765L13.694 29.4938L13.3305 29.0164ZM13.4533 28.7879C13.4493 28.8449 13.4283 28.9418 13.3303 29.0165L13.6941 29.4937C13.9814 29.2746 14.0413 28.9802 14.0518 28.8297L13.4533 28.7879ZM13.362 28.5461C13.449 28.6333 13.4569 28.7326 13.4532 28.789L14.0519 28.8286C14.0619 28.6774 14.0415 28.3777 13.7868 28.1223L13.362 28.5461ZM11.9859 27.1704L13.3623 28.5464L13.7865 28.1221L12.4101 26.7461L11.9859 27.1704ZM11.9738 27.1588C11.9799 27.1642 11.9816 27.166 11.9813 27.1656L12.4148 26.7509C12.3977 26.733 12.3811 26.718 12.3689 26.7073L11.9738 27.1588ZM18.7898 4.58517C19.1414 4.78072 19.2714 5.21104 19.0871 5.56825L19.6203 5.84337C19.9532 5.19808 19.7162 4.4138 19.0814 4.06079L18.7898 4.58517ZM17.8946 4.08822L18.7899 4.58527L19.0812 4.06069L18.1859 3.56364L17.8946 4.08822ZM5.69348 14.2822C8.28884 9.42358 12.7568 5.71111 18.1258 4.11347L17.9547 3.53839C12.4297 5.18247 7.83393 9.00175 5.16425 13.9995L5.69348 14.2822ZM5.48113 13.7317L5.25224 13.8984L5.60548 14.3834L5.83436 14.2167L5.48113 13.7317ZM7.4167 13.1023C6.71705 13.1023 6.04721 13.32 5.4813 13.7315L5.83419 14.2168C6.29748 13.8799 6.84377 13.7023 7.4167 13.7023V13.1023ZM9.35114 13.1023H7.4167V13.7023H9.35114V13.1023ZM9.88328 12.8756C9.74219 13.0224 9.55439 13.1023 9.35114 13.1023V13.7023C9.7178 13.7023 10.0618 13.5557 10.3159 13.2913L9.88328 12.8756ZM10.0878 12.3348C10.0963 12.538 10.0239 12.729 9.88307 12.8758L10.3161 13.2911C10.5697 13.0267 10.7026 12.6768 10.6873 12.31L10.0878 12.3348ZM11.0486 9.87333C10.4003 10.5217 10.0505 11.4186 10.0878 12.3346L10.6873 12.3102C10.6568 11.5615 10.9432 10.8273 11.4729 10.2976L11.0486 9.87333ZM11.1715 9.7505L11.0486 9.87333L11.4729 10.2976L11.5957 10.1748L11.1715 9.7505ZM13.8033 8.80104C12.8259 8.70998 11.8659 9.05645 11.1715 9.75043L11.5957 10.1748C12.1639 9.60691 12.9481 9.32396 13.7476 9.39845L13.8033 8.80104ZM16.7573 9.07569L13.8032 8.80103L13.7476 9.39846L16.7017 9.67312L16.7573 9.07569ZM17.4812 8.67965C17.3419 8.94904 17.0591 9.10395 16.7575 9.07571L16.7016 9.6731C17.2475 9.72421 17.7628 9.44119 18.0141 8.95527L17.4812 8.67965ZM19.0871 5.56822L17.4811 8.67987L18.0143 8.95505L19.6202 5.8434L19.0871 5.56822ZM48.0703 27.8625C48.4433 27.8625 48.7469 28.1661 48.7469 28.5391H49.3469C49.3469 27.8347 48.7746 27.2625 48.0703 27.2625V27.8625ZM31.2734 27.8625H48.0703V27.2625H31.2734V27.8625ZM30.5969 28.5391C30.5969 28.1661 30.9005 27.8625 31.2734 27.8625V27.2625C30.5691 27.2625 29.9969 27.8347 29.9969 28.5391H30.5969ZM30.5969 32.4453V28.5391H29.9969V32.4453H30.5969ZM31.2734 33.1219C30.9005 33.1219 30.5969 32.8183 30.5969 32.4453H29.9969C29.9969 33.1496 30.5691 33.7219 31.2734 33.7219V33.1219ZM48.0703 33.1219H31.2734V33.7219H48.0703V33.1219ZM48.7469 32.4453C48.7469 32.8183 48.4433 33.1219 48.0703 33.1219V33.7219C48.7746 33.7219 49.3469 33.1496 49.3469 32.4453H48.7469ZM48.7469 28.5391V32.4453H49.3469V28.5391H48.7469ZM48.7469 40.2578C48.7469 40.6308 48.4433 40.9344 48.0703 40.9344V41.5344C48.7746 41.5344 49.3469 40.9621 49.3469 40.2578H48.7469ZM48.7469 36.3516V40.2578H49.3469V36.3516H48.7469ZM48.0703 35.675C48.4433 35.675 48.7469 35.9786 48.7469 36.3516H49.3469C49.3469 35.6472 48.7746 35.075 48.0703 35.075V35.675ZM31.2734 35.675H48.0703V35.075H31.2734V35.675ZM30.5969 36.3516C30.5969 35.9786 30.9005 35.675 31.2734 35.675V35.075C30.5691 35.075 29.9969 35.6472 29.9969 36.3516H30.5969ZM30.5969 40.2578V36.3516H29.9969V40.2578H30.5969ZM31.2734 40.9344C30.9005 40.9344 30.5969 40.6308 30.5969 40.2578H29.9969C29.9969 40.9621 30.5691 41.5344 31.2734 41.5344V40.9344ZM48.0703 40.9344H31.2734V41.5344H48.0703V40.9344ZM37.2001 25.6094V23.826H36.6001V25.6094H37.2001ZM45.0815 25.3094H36.9001V25.9094H45.0815V25.3094ZM44.8406 24.0469C44.8406 24.5594 44.8196 25.0747 44.7823 25.5876L45.3807 25.6311C45.4189 25.1057 45.4406 24.5757 45.4406 24.0469H44.8406ZM44.8158 23.039C44.832 23.3732 44.8406 23.7091 44.8406 24.0469H45.4406C45.4406 23.6988 45.4317 23.3533 45.4151 23.01L44.8158 23.039ZM44.1721 23.3245H45.1154V22.7245H44.1721V23.3245ZM43.7951 23.4806C43.8957 23.3797 44.0287 23.3245 44.1721 23.3245V22.7245C43.8699 22.7245 43.584 22.8426 43.3703 23.0568L43.7951 23.4806ZM41.4895 24.3821C42.348 24.4172 43.1876 24.0876 43.7948 23.4809L43.3706 23.0565C42.8814 23.5453 42.2043 23.8108 41.514 23.7826L41.4895 24.3821ZM39.2636 23.3013C39.8207 23.9543 40.6319 24.3483 41.49 24.3821L41.5136 23.7826C40.8229 23.7554 40.1685 23.4376 39.7201 22.9118L39.2636 23.3013ZM38.9462 22.9294L39.2636 23.3013L39.72 22.9118L39.4026 22.5399L38.9462 22.9294ZM38.2391 22.8349C38.4651 22.6807 38.7688 22.7213 38.9462 22.9293L39.4027 22.5399C39.0262 22.0986 38.38 22.0126 37.9011 22.3391L38.2391 22.8349ZM37.4332 23.3852L38.2393 22.8347L37.9009 22.3392L37.0949 22.8897L37.4332 23.3852ZM37.2001 23.826C37.2001 23.6494 37.2872 23.4847 37.433 23.3853L37.0951 22.8896C36.7854 23.1007 36.6001 23.451 36.6001 23.826H37.2001ZM26.3069 32.7955V29.7239H25.7069V32.7955H26.3069ZM28.4571 35.618C27.2186 35.2763 26.3069 34.1399 26.3069 32.7955H25.7069C25.7069 34.4174 26.8063 35.785 28.2975 36.1964L28.4571 35.618ZM28.8688 34.1982C28.4601 34.6544 28.178 35.2276 28.0808 35.8617L28.6739 35.9526C28.7528 35.4377 28.982 34.971 29.3156 34.5986L28.8688 34.1982ZM28.0438 32.4453C28.0438 33.2724 28.3566 34.0273 28.8688 34.5987L29.3156 34.1982C28.8977 33.732 28.6437 33.1182 28.6437 32.4453H28.0438ZM28.0438 28.5391V32.4453H28.6437V28.5391H28.0438ZM31.2734 25.3094C29.4922 25.3094 28.0438 26.7579 28.0438 28.5391H28.6437C28.6437 27.0892 29.8236 25.9094 31.2734 25.9094V25.3094ZM34.9474 25.3094H31.2734V25.9094H34.9474V25.3094ZM34.6474 23.8256V25.6094H35.2474V23.8256H34.6474ZM35.994 21.276C35.1507 21.8515 34.6474 22.8049 34.6474 23.8256H35.2474C35.2474 23.0031 35.6528 22.2353 36.3322 21.7716L35.994 21.276ZM36.8001 20.726L35.994 21.276L36.3322 21.7716L37.1383 21.2216L36.8001 20.726ZM40.8889 21.2723C39.8636 20.07 38.1053 19.8351 36.8 20.726L37.1383 21.2215C38.1905 20.5034 39.606 20.6926 40.4324 21.6617L40.8889 21.2723ZM41.206 21.6443L40.889 21.2724L40.4323 21.6616L40.7493 22.0335L41.206 21.6443ZM41.5905 21.831C41.4393 21.8251 41.3042 21.7595 41.2059 21.6443L40.7494 22.0336C40.9563 22.2762 41.2484 22.4181 41.5672 22.4305L41.5905 21.831ZM41.9893 21.6752C41.8825 21.782 41.7432 21.8367 41.59 21.831L41.5677 22.4305C41.886 22.4424 42.1877 22.3254 42.4135 22.0995L41.9893 21.6752ZM44.1721 20.771C43.3483 20.771 42.572 21.0926 41.9893 21.6752L42.4135 22.0995C42.8837 21.6293 43.5074 21.371 44.1721 21.371V20.771ZM44.9297 20.771H44.1721V21.371H44.9297V20.771ZM39.2894 9.91945C42.1038 12.9538 44.0247 16.8251 44.6326 21.1131L45.2267 21.0289C44.601 16.6156 42.624 12.6324 39.7293 9.51143L39.2894 9.91945ZM31.5 10.0154H39.5094V9.41544H31.5V10.0154ZM30.5994 9.82799C30.8852 9.95243 31.1884 10.0154 31.5 10.0154V9.41544C31.2707 9.41544 31.049 9.36935 30.8389 9.27787L30.5994 9.82799ZM28.8776 9.07962L30.5996 9.82807L30.8387 9.2778L29.1168 8.52935L28.8776 9.07962ZM26.5691 9.10373L28.9971 9.10449L28.9973 8.50449L26.5692 8.50373L26.5691 9.10373ZM25.2793 10.8778L26.8025 8.99224L26.3358 8.61521L24.8126 10.5008L25.2793 10.8778ZM25.6333 12.3878C25.7983 11.7449 25.6733 11.0659 25.2922 10.518L24.7996 10.8606C25.0824 11.2672 25.1732 11.767 25.0521 12.2387L25.6333 12.3878ZM24.4337 13.8568C25.0305 13.5665 25.4679 13.0309 25.6333 12.388L25.0522 12.2385C24.9307 12.711 24.6097 13.1039 24.1712 13.3172L24.4337 13.8568ZM22.6522 14.7234L24.4337 13.8567L24.1712 13.3172L22.3898 14.1839L22.6522 14.7234ZM22.8179 16.3268L22.821 14.4542L22.221 14.4532L22.2179 16.3258L22.8179 16.3268ZM20.5591 18.5852C21.8051 18.5852 22.8179 17.5719 22.8179 16.3263H22.2179C22.2179 17.2406 21.4737 17.9852 20.5591 17.9852V18.5852ZM19.8093 19.0441C19.9541 18.7605 20.2407 18.5852 20.5591 18.5852V17.9852C20.0154 17.9852 19.5223 18.2867 19.2749 18.7713L19.8093 19.0441ZM19.3508 19.9425L19.8093 19.0441L19.2749 18.7713L18.8164 19.6697L19.3508 19.9425ZM19.7996 22.7842C19.047 22.0315 18.8667 20.8902 19.3507 19.9425L18.8164 19.6696C18.214 20.849 18.4388 22.2719 19.3754 23.2084L19.7996 22.7842ZM22.1178 25.1024L19.7996 22.7842L19.3754 23.2084L21.6936 25.5266L22.1178 25.1024ZM23.5024 25.016L21.906 25.0145L21.9054 25.6145L23.5019 25.616L23.5024 25.016ZM25.7065 26.7831C25.4749 25.7438 24.567 25.016 23.5021 25.016V25.616C24.2859 25.616 24.9504 26.1487 25.1209 26.9136L25.7065 26.7831ZM26.2528 29.2325L25.7065 26.7831L25.1209 26.9137L25.6671 29.3631L26.2528 29.2325ZM26.3069 29.7239C26.3069 29.5583 26.2884 29.393 26.2528 29.2328L25.6671 29.3628C25.6933 29.481 25.7069 29.6027 25.7069 29.7239H26.3069ZM48.7469 48.0703C48.7469 48.4433 48.4433 48.7469 48.0703 48.7469V49.3469C48.7746 49.3469 49.3469 48.7746 49.3469 48.0703H48.7469ZM48.7469 44.1641V48.0703H49.3469V44.1641H48.7469ZM48.0703 43.4875C48.4433 43.4875 48.7469 43.7911 48.7469 44.1641H49.3469C49.3469 43.4597 48.7746 42.8875 48.0703 42.8875V43.4875ZM31.2734 43.4875H48.0703V42.8875H31.2734V43.4875ZM30.5969 44.1641C30.5969 43.7911 30.9005 43.4875 31.2734 43.4875V42.8875C30.5691 42.8875 29.9969 43.4597 29.9969 44.1641H30.5969ZM30.5969 45.2493V44.1641H29.9969V45.2493H30.5969ZM30.5886 45.7726C30.634 45.5835 30.637 45.381 30.5886 45.1793L30.0052 45.3194C30.0308 45.426 30.0292 45.5324 30.0052 45.6325L30.5886 45.7726ZM30.5969 48.0703V45.7025H29.9969V48.0703H30.5969ZM31.2734 48.7469C30.9005 48.7469 30.5969 48.4433 30.5969 48.0703H29.9969C29.9969 48.7746 30.5691 49.3469 31.2734 49.3469V48.7469ZM48.0703 48.7469H31.2734V49.3469H48.0703V48.7469ZM33.4752 38.7823C33.3481 38.9086 33.1729 38.9813 32.995 38.9813V39.5812C33.3329 39.5812 33.6597 39.4448 33.8981 39.2079L33.4752 38.7823ZM33.6716 38.3047C33.6716 38.4827 33.5992 38.6583 33.4745 38.783L33.8988 39.2073C34.1372 38.9689 34.2716 38.6402 34.2716 38.3047H33.6716ZM33.4745 37.8264C33.5992 37.9511 33.6716 38.1267 33.6716 38.3047H34.2716C34.2716 37.9692 34.1372 37.6405 33.8988 37.4021L33.4745 37.8264ZM32.995 37.6281C33.1729 37.6281 33.3481 37.7008 33.4752 37.827L33.8981 37.4014C33.6597 37.1645 33.3329 37.0281 32.995 37.0281V37.6281ZM32.5165 37.8266C32.6424 37.7009 32.8181 37.6281 32.995 37.6281V37.0281C32.6585 37.0281 32.3306 37.1644 32.0926 37.4019L32.5165 37.8266ZM32.3196 38.3047C32.3196 38.1267 32.3919 37.9511 32.5167 37.8264L32.0924 37.4021C31.854 37.6405 31.7196 37.9692 31.7196 38.3047H32.3196ZM32.5167 38.783C32.3919 38.6583 32.3196 38.4827 32.3196 38.3047H31.7196C31.7196 38.6402 31.854 38.9689 32.0924 39.2073L32.5167 38.783ZM32.995 38.9813C32.8185 38.9813 32.6432 38.9087 32.516 38.7823L32.0931 39.2079C32.3313 39.4447 32.6581 39.5812 32.995 39.5812V38.9813ZM32.5165 45.6391C32.6424 45.5134 32.8181 45.4406 32.995 45.4406V44.8406C32.6585 44.8406 32.3306 44.9769 32.0926 45.2144L32.5165 45.6391ZM32.3196 46.1172C32.3196 45.9392 32.3919 45.7636 32.5167 45.6389L32.0924 45.2146C31.854 45.453 31.7196 45.7817 31.7196 46.1172H32.3196ZM32.5167 46.5955C32.3919 46.4708 32.3196 46.2952 32.3196 46.1172H31.7196C31.7196 46.4527 31.854 46.7814 32.0924 47.0198L32.5167 46.5955ZM32.995 46.7938C32.8185 46.7938 32.6432 46.7212 32.516 46.5948L32.0931 47.0204C32.3313 47.2572 32.6581 47.3937 32.995 47.3937V46.7938ZM33.4752 46.5948C33.3481 46.7211 33.1729 46.7938 32.995 46.7938V47.3937C33.3329 47.3937 33.6597 47.2573 33.8981 47.0204L33.4752 46.5948ZM33.6716 46.1172C33.6716 46.2952 33.5992 46.4708 33.4745 46.5955L33.8988 47.0198C34.1372 46.7814 34.2716 46.4527 34.2716 46.1172H33.6716ZM33.4745 45.6389C33.5992 45.7636 33.6716 45.9392 33.6716 46.1172H34.2716C34.2716 45.7817 34.1372 45.453 33.8988 45.2146L33.4745 45.6389ZM32.995 45.4406C33.1729 45.4406 33.3481 45.5133 33.4752 45.6395L33.8981 45.2139C33.6597 44.977 33.3329 44.8406 32.995 44.8406V45.4406ZM36.0448 45.6393C36.1715 45.5132 36.3465 45.4406 36.5236 45.4406V44.8406C36.1864 44.8406 35.8595 44.9771 35.6215 45.2141L36.0448 45.6393ZM35.847 46.1172C35.847 45.9398 35.9197 45.7642 36.0451 45.6391L35.6212 45.2144C35.3827 45.4524 35.247 45.7811 35.247 46.1172H35.847ZM36.0451 46.5953C35.9197 46.4702 35.847 46.2945 35.847 46.1172H35.247C35.247 46.4533 35.3827 46.7819 35.6212 47.02L36.0451 46.5953ZM36.5236 46.7938C36.3462 46.7938 36.1707 46.7209 36.0453 46.5955L35.621 47.0198C35.8588 47.2575 36.1868 47.3937 36.5236 47.3937V46.7938ZM37.0034 46.5948C36.8763 46.7211 36.701 46.7938 36.5236 46.7938V47.3937C36.8612 47.3937 37.1879 47.2573 37.4263 47.0204L37.0034 46.5948ZM37.2002 46.1172C37.2002 46.2949 37.1276 46.4706 37.0027 46.5955L37.427 47.0198C37.6652 46.7816 37.8002 46.453 37.8002 46.1172H37.2002ZM37.0027 45.6389C37.1276 45.7638 37.2002 45.9395 37.2002 46.1172H37.8002C37.8002 45.7814 37.6652 45.4528 37.427 45.2146L37.0027 45.6389ZM36.5236 45.4406C36.7004 45.4406 36.8764 45.5133 37.0034 45.6395L37.4263 45.2139C37.1879 44.977 36.8603 44.8406 36.5236 44.8406V45.4406ZM46.1717 44.8406H41.4633V45.4406H46.1717V44.8406ZM47.4483 46.1172C47.4483 45.4121 46.8768 44.8406 46.1717 44.8406V45.4406C46.5454 45.4406 46.8483 45.7435 46.8483 46.1172H47.4483ZM46.1717 47.3937C46.8768 47.3937 47.4483 46.8223 47.4483 46.1172H46.8483C46.8483 46.4909 46.5454 46.7938 46.1717 46.7938V47.3937ZM41.4633 47.3937H46.1717V46.7938H41.4633V47.3937ZM40.1867 46.1172C40.1867 46.8223 40.7582 47.3937 41.4633 47.3937V46.7938C41.0895 46.7938 40.7867 46.4909 40.7867 46.1172H40.1867ZM41.4633 44.8406C40.7582 44.8406 40.1867 45.4121 40.1867 46.1172H40.7867C40.7867 45.7435 41.0895 45.4406 41.4633 45.4406V44.8406ZM36.5236 39.5812C36.8612 39.5812 37.1879 39.4448 37.4263 39.2079L37.0034 38.7823C36.8763 38.9086 36.701 38.9813 36.5236 38.9813V39.5812ZM35.621 39.2073C35.8588 39.445 36.1868 39.5812 36.5236 39.5812V38.9813C36.3462 38.9813 36.1707 38.9084 36.0453 38.783L35.621 39.2073ZM35.247 38.3047C35.247 38.6408 35.3827 38.9694 35.6212 39.2075L36.0451 38.7828C35.9197 38.6577 35.847 38.482 35.847 38.3047H35.247ZM35.6212 37.4019C35.3827 37.6399 35.247 37.9686 35.247 38.3047H35.847C35.847 38.1273 35.9197 37.9517 36.0451 37.8266L35.6212 37.4019ZM36.5236 37.0281C36.1868 37.0281 35.8588 37.1643 35.621 37.4021L36.0453 37.8264C36.1707 37.7009 36.3462 37.6281 36.5236 37.6281V37.0281ZM37.4263 37.4014C37.1879 37.1646 36.8612 37.0281 36.5236 37.0281V37.6281C36.701 37.6281 36.8763 37.7007 37.0034 37.827L37.4263 37.4014ZM37.8002 38.3047C37.8002 37.9689 37.6652 37.6403 37.427 37.4021L37.0027 37.8264C37.1276 37.9513 37.2002 38.127 37.2002 38.3047H37.8002ZM37.427 39.2073C37.6652 38.9691 37.8002 38.6405 37.8002 38.3047H37.2002C37.2002 38.4824 37.1276 38.6581 37.0027 38.783L37.427 39.2073ZM46.1717 38.9813H41.4633V39.5812H46.1717V38.9813ZM46.8483 38.3047C46.8483 38.6784 46.5454 38.9813 46.1717 38.9813V39.5812C46.8768 39.5812 47.4483 39.0098 47.4483 38.3047H46.8483ZM46.1717 37.6281C46.5454 37.6281 46.8483 37.931 46.8483 38.3047H47.4483C47.4483 37.5996 46.8768 37.0281 46.1717 37.0281V37.6281ZM41.4633 37.6281H46.1717V37.0281H41.4633V37.6281ZM40.7867 38.3047C40.7867 37.931 41.0895 37.6281 41.4633 37.6281V37.0281C40.7582 37.0281 40.1867 37.5996 40.1867 38.3047H40.7867ZM41.4633 38.9813C41.0895 38.9813 40.7867 38.6784 40.7867 38.3047H40.1867C40.1867 39.0098 40.7582 39.5812 41.4633 39.5812V38.9813ZM32.516 30.0145C32.6432 29.8881 32.8185 29.8156 32.995 29.8156V29.2156C32.6581 29.2156 32.3313 29.3522 32.0931 29.5889L32.516 30.0145ZM32.3196 30.4922C32.3196 30.3142 32.3919 30.1386 32.5167 30.0139L32.0924 29.5896C31.854 29.828 31.7196 30.1567 31.7196 30.4922H32.3196ZM32.5167 30.9705C32.3919 30.8458 32.3196 30.6702 32.3196 30.4922H31.7196C31.7196 30.8277 31.854 31.1564 32.0924 31.3948L32.5167 30.9705ZM32.995 31.1688C32.8181 31.1688 32.6424 31.096 32.5165 30.9703L32.0926 31.395C32.3306 31.6325 32.6585 31.7687 32.995 31.7687V31.1688ZM33.4752 30.9699C33.3481 31.0961 33.1729 31.1688 32.995 31.1688V31.7687C33.3329 31.7687 33.6597 31.6323 33.8981 31.3954L33.4752 30.9699ZM33.6716 30.4922C33.6716 30.6702 33.5992 30.8458 33.4745 30.9705L33.8988 31.3948C34.1372 31.1564 34.2716 30.8277 34.2716 30.4922H33.6716ZM33.4745 30.0139C33.5992 30.1386 33.6716 30.3142 33.6716 30.4922H34.2716C34.2716 30.1567 34.1372 29.828 33.8988 29.5896L33.4745 30.0139ZM32.995 29.8156C33.1729 29.8156 33.3481 29.8883 33.4752 30.0145L33.8981 29.5889C33.6597 29.352 33.3329 29.2156 32.995 29.2156V29.8156ZM35.247 30.4922C35.247 30.8283 35.3827 31.1569 35.6212 31.395L36.0451 30.9703C35.9197 30.8452 35.847 30.6695 35.847 30.4922H35.247ZM35.6212 29.5894C35.3827 29.8274 35.247 30.1561 35.247 30.4922H35.847C35.847 30.3148 35.9197 30.1392 36.0451 30.0141L35.6212 29.5894ZM36.5236 29.2156C36.1868 29.2156 35.8588 29.3518 35.621 29.5896L36.0453 30.0139C36.1707 29.8884 36.3462 29.8156 36.5236 29.8156V29.2156ZM37.4263 29.5889C37.1879 29.3521 36.8612 29.2156 36.5236 29.2156V29.8156C36.701 29.8156 36.8763 29.8882 37.0034 30.0145L37.4263 29.5889ZM37.8002 30.4922C37.8002 30.1564 37.6652 29.8278 37.427 29.5896L37.0027 30.0139C37.1276 30.1388 37.2002 30.3145 37.2002 30.4922H37.8002ZM37.427 31.3948C37.6652 31.1566 37.8002 30.828 37.8002 30.4922H37.2002C37.2002 30.6699 37.1276 30.8456 37.0027 30.9705L37.427 31.3948ZM36.5236 31.7687C36.8603 31.7687 37.1879 31.6324 37.4263 31.3954L37.0034 30.9699C36.8764 31.0961 36.7004 31.1688 36.5236 31.1688V31.7687ZM35.6215 31.3952C35.8595 31.6323 36.1864 31.7687 36.5236 31.7687V31.1688C36.3465 31.1688 36.1715 31.0962 36.0448 30.9701L35.6215 31.3952ZM46.1717 31.1688H41.4633V31.7687H46.1717V31.1688ZM46.8483 30.4922C46.8483 30.8659 46.5454 31.1688 46.1717 31.1688V31.7687C46.8768 31.7687 47.4483 31.1973 47.4483 30.4922H46.8483ZM46.1717 29.8156C46.5454 29.8156 46.8483 30.1185 46.8483 30.4922H47.4483C47.4483 29.7871 46.8768 29.2156 46.1717 29.2156V29.8156ZM41.4633 29.8156H46.1717V29.2156H41.4633V29.8156ZM40.7867 30.4922C40.7867 30.1185 41.0895 29.8156 41.4633 29.8156V29.2156C40.7582 29.2156 40.1867 29.7871 40.1867 30.4922H40.7867ZM41.4633 31.1688C41.0895 31.1688 40.7867 30.8659 40.7867 30.4922H40.1867C40.1867 31.1973 40.7582 31.7687 41.4633 31.7687V31.1688ZM14.7306 42.7841C14.3946 42.7841 14.066 42.9187 13.8274 43.1588L14.253 43.5817C14.3775 43.4563 14.5524 43.3841 14.7306 43.3841V42.7841ZM15.6337 43.1585C15.3949 42.9187 15.0664 42.7841 14.7306 42.7841V43.3841C14.9083 43.3841 15.0834 43.4563 15.2085 43.5819L15.6337 43.1585ZM16.0072 44.0607C16.0072 43.7239 15.871 43.3958 15.6332 43.1581L15.2089 43.5824C15.3344 43.7078 15.4072 43.8833 15.4072 44.0607H16.0072ZM15.6334 44.9631C15.8709 44.7251 16.0072 44.3972 16.0072 44.0607H15.4072C15.4072 44.2376 15.3344 44.4133 15.2087 44.5392L15.6334 44.9631ZM14.7306 45.3372C15.0672 45.3372 15.395 45.2009 15.633 44.9635L15.2092 44.5388C15.0832 44.6645 14.9075 44.7372 14.7306 44.7372V45.3372ZM13.828 44.9633C14.0658 45.201 14.3938 45.3372 14.7306 45.3372V44.7372C14.5532 44.7372 14.3777 44.6644 14.2523 44.539L13.828 44.9633ZM13.4541 44.0607C13.4541 44.3972 13.5904 44.7251 13.8278 44.9631L14.2525 44.5392C14.1268 44.4133 14.0541 44.2376 14.0541 44.0607H13.4541ZM13.828 43.1581C13.5904 43.3958 13.4541 43.723 13.4541 44.0607H14.0541C14.0541 43.8826 14.1268 43.7079 14.2523 43.5824L13.828 43.1581Z" fill="black" mask="url(#path-1-outside-1_138:70)"/>
</svg>
