<svg width="85" height="90" viewBox="0 0 85 90" fill="black" xmlns="http://www.w3.org/2000/svg">
<path fill-rule="evenodd" clip-rule="evenodd" d="M84.792 21.9766C84.792 17.9055 81.4803 14.5938 77.4091 14.5938C75.319 14.5938 73.43 15.4686 72.0856 16.8694L43.2745 0.235348C42.7307 -0.0784494 42.0612 -0.0784494 41.5174 0.235348L12.7057 16.8694C11.3613 15.4686 9.47298 14.5938 7.38283 14.5938C3.3117 14.5938 0 17.9055 0 21.9766C0 25.4415 2.39983 28.3549 5.62501 29.1459V62.4023C5.62501 63.0299 5.96009 63.6101 6.50392 63.9246L35.306 80.5538C35.1151 81.2089 35.0107 81.901 35.0107 82.6172C35.0107 86.6876 38.3224 90 42.3936 90C46.464 90 49.7757 86.6876 49.7757 82.6172C49.7757 81.9017 49.672 81.2109 49.4811 80.5559L78.288 63.9246C78.8319 63.6108 79.1669 63.0299 79.1669 62.4023V29.1459C82.3921 28.3549 84.792 25.4415 84.792 21.9766ZM3.51563 21.9766C3.51563 19.8439 5.2501 18.1095 7.38283 18.1095C9.51486 18.1095 11.2493 19.8439 11.2493 21.9766C11.2493 24.1087 9.51486 25.8438 7.38283 25.8438C5.2501 25.8438 3.51563 24.1087 3.51563 21.9766ZM42.3936 86.4844C40.2608 86.4844 38.5264 84.7499 38.5264 82.6172C38.5264 80.4851 40.2608 78.75 42.3936 78.75C44.5256 78.75 46.2608 80.4851 46.2608 82.6172C46.2608 84.7499 44.5256 86.4844 42.3936 86.4844ZM47.7206 77.5133C46.3754 76.1105 44.4858 75.2344 42.3936 75.2344C40.3027 75.2344 38.4131 76.1098 37.0686 77.5113L9.14064 61.3874V29.1459C12.3651 28.3549 14.765 25.4415 14.765 21.9766C14.765 21.2598 14.6606 20.567 14.469 19.9105L42.3956 3.78737L70.3229 19.9105C70.1314 20.567 70.027 21.2591 70.027 21.9766C70.027 25.4415 72.4268 28.3549 75.6513 29.1459V61.3874L47.7206 77.5133ZM77.4091 25.8438C75.2771 25.8438 73.5419 24.1087 73.5419 21.9766C73.5419 19.8439 75.2771 18.1095 77.4091 18.1095C79.5418 18.1095 81.2763 19.8439 81.2763 21.9766C81.2763 24.1087 79.5418 25.8438 77.4091 25.8438ZM66.4777 27.2686L43.2746 13.8728C42.7307 13.559 42.0613 13.559 41.5174 13.8728L18.3143 27.2686C17.7704 27.5831 17.4354 28.1633 17.4354 28.7909V55.5832C17.4354 56.2108 17.7704 56.7917 18.3143 57.1055L41.5174 70.502C41.7893 70.6585 42.0922 70.7375 42.3957 70.7375C42.6998 70.7375 43.0026 70.6585 43.2746 70.502L66.4777 57.1055C67.0216 56.7917 67.3566 56.2108 67.3566 55.5832V28.7909C67.3566 28.1633 67.0216 27.5831 66.4777 27.2686ZM42.3957 17.4249L62.0832 28.7909L42.3957 40.1577L22.7088 28.7909L42.3957 17.4249ZM44.1535 65.9351V58.0078C44.1535 57.0368 43.3666 56.2499 42.3957 56.2499C41.4254 56.2499 40.6385 57.0368 40.6385 58.0078V65.9351L20.951 54.5683V31.8355L41.5174 43.7097C41.7893 43.8663 42.0922 43.9452 42.3957 43.9452C42.6998 43.9452 43.0026 43.8663 43.2746 43.7097L63.841 31.8355V54.5683L44.1535 65.9351ZM41.1494 48.8547C41.4783 48.5272 41.9301 48.3397 42.3943 48.3397C42.8564 48.3397 43.3103 48.5272 43.6371 48.8547C43.9639 49.1815 44.1521 49.6347 44.1521 50.0975C44.1521 50.5597 43.9639 51.0128 43.6371 51.3397C43.3103 51.6672 42.8564 51.8554 42.3943 51.8554C41.9301 51.8554 41.4783 51.6672 41.1494 51.3397C40.8225 51.0128 40.6344 50.5597 40.6344 50.0975C40.6344 49.6347 40.8225 49.1815 41.1494 48.8547Z"/>
</svg>
